<?xml version="1.0" standalone="no"?>
<!DOCTYPE svg PUBLIC "-//W3C//DTD SVG 20010904//EN"
 "http://www.w3.org/TR/2001/REC-SVG-20010904/DTD/svg10.dtd">
<svg version="1.0" xmlns="http://www.w3.org/2000/svg"
 width="512.000000pt" height="512.000000pt" viewBox="0 0 512.000000 512.000000"
 preserveAspectRatio="xMidYMid meet">

<g transform="translate(0.000000,512.000000) scale(0.100000,-0.100000)"
fill="#000000" stroke="none">
<path d="M2300 5030 c-46 -9 -45 -10 303 -12 280 -3 374 3 235 14 -92 8 -497
6 -538 -2z"/>
<path d="M2960 4999 c0 -4 39 -13 88 -20 48 -7 89 -13 92 -14 3 0 14 -6 25
-12 11 -6 40 -14 65 -18 24 -4 54 -13 65 -21 11 -7 38 -16 60 -20 22 -3 47
-12 55 -19 8 -7 31 -16 50 -20 19 -4 46 -16 59 -26 13 -11 31 -19 41 -19 9 0
25 -9 35 -20 10 -11 26 -22 37 -26 15 -4 17 -9 7 -20 -6 -8 -18 -14 -25 -14
-8 0 -14 -4 -14 -10 0 -16 25 -12 48 9 14 11 24 36 28 65 4 25 11 46 16 46 4
0 8 31 7 69 -1 38 2 74 5 80 11 18 -10 13 -27 -7 -10 -10 -17 -26 -17 -35 0
-12 -8 -17 -26 -17 -15 0 -23 -4 -18 -11 3 -6 15 -9 25 -6 10 3 22 1 25 -4 3
-5 -8 -9 -25 -9 -29 0 -30 -1 -20 -26 5 -15 8 -28 6 -30 -4 -4 -54 10 -92 26
-40 16 -281 90 -294 90 -8 0 -44 9 -80 20 -66 19 -201 32 -201 19z"/>
<path d="M2006 4986 c6 -14 56 -13 119 4 23 6 11 8 -47 9 -62 1 -76 -2 -72
-13z"/>
<path d="M1850 4945 c0 -11 8 -13 33 -8 66 13 74 22 20 22 -40 1 -53 -3 -53
-14z"/>
<path d="M3815 4951 c-3 -5 -1 -12 5 -16 5 -3 10 1 10 9 0 18 -6 21 -15 7z"/>
<path d="M1771 4921 c-19 -3 -36 -11 -38 -17 -5 -15 45 -6 72 12 21 15 20 15
-34 5z"/>
<path d="M3798 4915 c-3 -3 2 -35 11 -71 18 -71 61 -134 109 -158 22 -10 112
-28 199 -39 6 -1 12 3 12 8 1 6 -5 10 -12 11 -6 0 -25 7 -42 14 -38 16 -67 19
-81 8 -7 -5 -13 -1 -17 12 -3 11 -12 20 -20 20 -9 0 -20 12 -25 28 -7 17 -11
21 -11 10 -1 -27 -18 -21 -24 8 -3 16 0 28 9 31 20 8 6 23 -21 23 -18 0 -22 4
-18 20 4 15 0 20 -17 20 -17 0 -20 4 -15 21 5 14 3 19 -3 15 -6 -4 -15 1 -19
9 -5 9 -12 13 -15 10z"/>
<path d="M1700 4890 c-13 -8 -12 -10 3 -10 9 0 17 5 17 10 0 12 -1 12 -20 0z"/>
<path d="M1613 4860 c-24 -10 -43 -21 -43 -24 0 -7 40 6 46 15 3 5 16 9 30 9
13 0 24 5 24 10 0 14 -9 12 -57 -10z"/>
<path d="M1515 4819 c-16 -10 -25 -19 -19 -19 16 0 64 24 64 33 0 11 -12 7
-45 -14z"/>
<path d="M1431 4780 c-13 -11 -19 -20 -14 -20 15 0 63 25 63 33 0 13 -25 7
-49 -13z"/>
<path d="M1353 4741 c-13 -11 -23 -22 -23 -25 0 -8 69 28 70 37 0 13 -25 7
-47 -12z"/>
<path d="M1257 4685 c-15 -14 -35 -25 -43 -25 -8 0 -14 -4 -14 -10 0 -5 -6
-10 -12 -10 -7 0 -24 -9 -38 -20 -14 -11 -41 -20 -60 -20 -27 0 -45 -9 -79
-40 -24 -22 -40 -40 -35 -40 12 0 74 44 74 53 0 4 19 7 41 7 41 0 109 32 109
51 0 5 7 9 15 9 8 0 24 9 35 20 11 11 23 20 28 20 4 0 16 7 26 15 20 15 20 15
0 15 -10 0 -32 -12 -47 -25z"/>
<path d="M3553 4695 c-11 -9 -45 -15 -93 -15 -82 0 -136 -18 -65 -21 96 -4
149 -1 153 10 2 6 12 11 22 11 24 0 35 16 16 23 -8 3 -22 -1 -33 -8z"/>
<path d="M2350 4685 c-78 -7 -104 -13 -102 -23 1 -8 -2 -11 -9 -7 -12 8 -158
-13 -174 -25 -5 -4 -35 -13 -65 -20 -30 -7 -59 -15 -65 -19 -5 -3 -12 -6 -15
-6 -12 -2 -88 -28 -116 -40 -128 -58 -162 -75 -182 -95 -25 -24 -24 -26 28
-82 25 -27 60 -37 60 -18 0 6 5 10 11 10 6 0 38 14 71 30 54 28 213 84 351
125 33 9 84 19 115 22 32 2 80 12 107 21 41 14 96 17 310 17 232 0 264 -2 288
-17 14 -10 33 -18 40 -18 24 0 77 31 87 50 25 46 1 79 -70 96 -49 12 -544 11
-670 -1z m179 -46 c-8 -5 -36 -8 -64 -8 -34 1 -42 3 -27 7 37 11 107 11 91 1z
m111 7 c0 -11 -19 -15 -25 -6 -3 5 1 10 9 10 9 0 16 -2 16 -4z m140 -6 c0 -7
-21 -9 -62 -4 -84 9 -86 14 -5 14 40 0 67 -4 67 -10z m120 -6 c0 -2 -15 -4
-32 -4 -23 0 -29 3 -19 9 12 8 51 4 51 -5z m113 -1 c-7 -2 -21 -2 -30 0 -10 3
-4 5 12 5 17 0 24 -2 18 -5z m-783 -33 c0 -5 -5 -10 -11 -10 -5 0 -7 5 -4 10
3 6 8 10 11 10 2 0 4 -4 4 -10z m363 3 c-7 -2 -21 -2 -30 0 -10 3 -4 5 12 5
17 0 24 -2 18 -5z m84 1 c-3 -3 -12 -4 -19 -1 -8 3 -5 6 6 6 11 1 17 -2 13 -5z
m-777 -58 c0 -3 -4 -8 -10 -11 -5 -3 -10 -1 -10 4 0 6 5 11 10 11 6 0 10 -2
10 -4z"/>
<path d="M4170 4671 c0 -9 39 -31 56 -31 12 0 2 18 -13 24 -10 3 -24 9 -30 12
-7 3 -13 1 -13 -5z"/>
<path d="M3228 4643 c7 -3 16 -2 19 1 4 3 -2 6 -13 5 -11 0 -14 -3 -6 -6z"/>
<path d="M4275 4640 c3 -5 11 -10 16 -10 6 0 7 5 4 10 -3 6 -11 10 -16 10 -6
0 -7 -4 -4 -10z"/>
<path d="M4300 4595 c0 -14 5 -25 10 -25 6 0 10 11 10 25 0 14 -4 25 -10 25
-5 0 -10 -11 -10 -25z"/>
<path d="M1456 4592 c-3 -6 -1 -14 5 -17 14 -9 20 -2 10 14 -6 8 -11 9 -15 3z"/>
<path d="M1400 4565 c0 -8 -5 -15 -12 -15 -6 0 -9 -3 -5 -6 3 -3 15 1 27 9 17
12 18 15 5 20 -9 4 -15 1 -15 -8z"/>
<path d="M1487 4563 c-13 -12 -7 -21 23 -33 17 -7 30 -18 30 -26 0 -7 5 -16
11 -20 20 -12 -1 35 -27 61 -28 28 -28 28 -37 18z"/>
<path d="M4268 4565 c-3 -3 -66 -6 -142 -6 -75 0 -136 -4 -136 -9 0 -4 -18
-11 -41 -15 -49 -9 -102 -53 -130 -109 -17 -33 -22 -68 -26 -175 -6 -140 -16
-171 -55 -171 -10 0 -18 -4 -18 -10 0 -10 16 -14 35 -10 6 1 20 2 33 2 13 0
21 6 19 12 -3 6 -10 10 -16 8 -6 -1 -11 2 -11 8 0 5 5 10 10 10 6 0 10 33 10
80 0 95 19 111 21 18 l1 -63 13 70 c7 39 11 73 8 78 -2 4 3 10 11 13 18 7 22
25 5 22 -6 -2 -14 3 -16 10 -3 6 3 12 11 12 12 0 16 8 14 28 -2 33 8 52 27 52
16 0 9 29 -9 43 -6 5 -1 5 11 2 23 -6 68 16 56 28 -3 4 8 7 25 7 16 0 32 6 34
12 3 9 12 8 31 -5 14 -9 32 -17 40 -17 18 0 242 -201 307 -277 83 -96 110
-129 110 -137 0 -5 7 -16 15 -25 39 -40 75 -87 75 -97 0 -7 7 -14 15 -18 8 -3
15 -10 15 -15 0 -6 16 -35 35 -65 19 -30 35 -58 35 -61 0 -4 10 -21 22 -38 12
-17 23 -37 24 -45 2 -7 10 -25 20 -40 10 -15 19 -33 20 -40 1 -7 10 -25 20
-40 10 -15 19 -31 20 -37 1 -5 8 -23 15 -40 7 -16 13 -32 14 -35 1 -3 7 -18
13 -33 7 -16 12 -37 12 -48 0 -10 3 -19 8 -19 8 0 32 -71 32 -98 0 -10 5 -23
12 -30 7 -7 9 -12 4 -12 -4 0 0 -10 8 -22 9 -12 16 -32 16 -43 0 -12 9 -55 19
-96 10 -41 22 -99 26 -130 5 -45 10 -58 26 -62 21 -6 25 13 9 43 -8 15 -6 20
10 25 11 3 20 14 19 23 0 11 -3 12 -6 5 -11 -28 -23 -10 -25 35 l-1 47 -7 -55
-7 -55 -1 47 c-1 25 -5 53 -8 62 -4 11 -1 16 10 16 9 0 16 5 16 10 0 6 -7 10
-15 10 -8 0 -15 5 -15 10 0 6 7 13 15 16 8 4 15 10 15 16 0 5 -4 6 -10 3 -5
-3 -10 2 -10 12 -1 15 -3 14 -14 -6 -13 -23 -13 -23 -19 -2 -3 11 -1 21 4 21
5 0 9 11 9 25 0 16 -6 25 -15 25 -8 0 -15 5 -15 10 0 6 8 10 18 10 11 0 6 7
-16 20 -18 11 -30 25 -27 30 7 11 -57 203 -74 224 -7 8 -13 25 -13 38 -1 13
-10 35 -20 50 -10 14 -18 31 -18 38 0 6 -11 28 -25 48 -14 20 -25 42 -25 48 0
6 -8 22 -19 35 -10 13 -22 35 -26 49 -4 14 -15 33 -24 42 -33 34 -42 48 -37
56 4 7 -18 35 -78 102 -7 8 -16 24 -20 36 -3 11 -40 56 -81 100 -41 43 -82 94
-90 112 -9 17 -23 32 -31 32 -8 0 -13 4 -9 9 3 5 -5 17 -17 25 -12 9 -18 16
-13 16 6 0 2 5 -7 11 -10 5 -18 19 -18 29 0 11 -7 20 -15 20 -8 0 -15 9 -15
20 0 11 5 20 11 20 6 0 8 9 4 20 -3 11 -2 20 3 20 5 0 13 -10 17 -22 6 -21 8
-21 12 -4 3 10 0 22 -6 25 -6 4 -9 23 -6 44 4 26 1 37 -8 37 -8 0 -16 -2 -19
-5z"/>
<path d="M3290 4553 c101 -5 137 -13 137 -28 0 -10 -12 -15 -36 -16 l-36 -1
30 -8 c45 -12 155 -12 155 0 0 17 15 11 51 -21 18 -16 34 -38 34 -47 0 -11 7
-16 18 -14 10 2 17 -3 17 -13 0 -9 -4 -13 -10 -10 -5 3 -10 1 -10 -4 0 -6 7
-11 15 -11 11 0 15 -12 15 -45 0 -25 4 -45 9 -45 5 0 9 17 9 38 1 167 -95 234
-333 230 -66 -1 -95 -3 -65 -5z"/>
<path d="M4310 4551 c0 -6 5 -13 10 -16 6 -3 10 1 10 9 0 9 -4 16 -10 16 -5 0
-10 -4 -10 -9z"/>
<path d="M1350 4519 c0 -5 5 -7 10 -4 6 3 10 8 10 11 0 2 -4 4 -10 4 -5 0 -10
-5 -10 -11z"/>
<path d="M845 4421 c-124 -120 -179 -180 -172 -187 3 -4 66 55 139 131 74 75
131 138 128 140 -3 2 -46 -36 -95 -84z"/>
<path d="M1143 4473 c-21 -8 -15 -22 7 -16 11 3 20 9 20 14 0 10 -8 10 -27 2z"/>
<path d="M3486 4471 c-7 -10 27 -21 68 -21 24 0 27 2 16 15 -13 16 -75 21 -84
6z"/>
<path d="M1504 4435 c-42 -37 -74 -44 -98 -20 -20 21 -26 19 -26 -8 0 -15 9
-26 30 -36 27 -11 34 -11 57 5 15 9 37 27 50 40 15 15 29 21 40 17 13 -5 15
-2 10 11 -4 10 -7 20 -7 22 0 12 -22 0 -56 -31z"/>
<path d="M3524 4425 c25 -13 32 -14 43 -2 12 12 7 14 -29 15 l-43 2 29 -15z"/>
<path d="M4300 4430 c0 -5 5 -10 11 -10 5 0 7 5 4 10 -3 6 -8 10 -11 10 -2 0
-4 -4 -4 -10z"/>
<path d="M1080 4420 c0 -5 7 -7 15 -4 8 4 15 8 15 10 0 2 -7 4 -15 4 -8 0 -15
-4 -15 -10z"/>
<path d="M3601 4414 c0 -11 3 -14 6 -6 3 7 2 16 -1 19 -3 4 -6 -2 -5 -13z"/>
<path d="M1046 4384 c-23 -23 -20 -30 4 -9 11 10 20 20 20 22 0 7 -9 2 -24
-13z"/>
<path d="M1384 4349 c-3 -5 6 -9 20 -9 31 0 34 6 6 13 -11 3 -23 1 -26 -4z"/>
<path d="M3888 4353 c7 -3 16 -2 19 1 4 3 -2 6 -13 5 -11 0 -14 -3 -6 -6z"/>
<path d="M996 4334 c-5 -14 -4 -15 9 -4 17 14 19 20 6 20 -5 0 -12 -7 -15 -16z"/>
<path d="M2423 4323 c-46 -2 -83 -7 -83 -12 0 -4 125 -6 278 -4 152 2 296 1
320 -2 67 -10 46 -29 -39 -36 -82 -6 -66 -13 24 -9 36 1 57 -2 57 -9 0 -8 -80
-10 -267 -9 -148 1 -247 3 -220 5 56 5 62 19 9 25 -53 5 -75 -1 -68 -18 3 -8
2 -14 -3 -14 -5 0 -12 11 -15 25 -6 22 -12 25 -59 26 -57 1 -82 0 -112 -6 -11
-2 -32 -4 -47 -4 -18 -1 -28 -6 -28 -16 0 -8 -4 -15 -10 -15 -5 0 -10 6 -10
13 0 9 -2 9 -8 1 -4 -7 -33 -15 -64 -19 -39 -5 -58 -12 -58 -21 0 -9 -11 -14
-30 -14 -17 0 -39 -9 -50 -20 -11 -11 -20 -16 -20 -11 0 5 -16 1 -35 -7 -22
-10 -35 -24 -36 -37 -1 -16 -2 -17 -6 -2 -2 9 -5 17 -7 17 -7 0 -144 -74 -156
-85 -8 -7 -34 -16 -57 -20 -36 -6 -43 -4 -43 9 0 9 -5 16 -11 16 -14 0 -2 -37
23 -72 26 -38 72 -68 110 -74 28 -5 38 0 67 30 19 20 41 36 49 36 8 0 26 8 40
18 23 16 178 86 192 87 3 1 31 11 63 23 32 12 69 22 83 22 13 0 35 7 48 15 12
8 58 18 102 21 43 4 86 10 94 15 10 5 11 8 3 9 -7 0 -13 3 -13 8 0 4 96 7 214
7 118 0 212 3 209 8 -2 4 1 7 6 7 6 0 11 -7 11 -15 0 -8 10 -17 23 -20 58 -13
155 -23 185 -20 23 3 34 0 38 -10 7 -16 79 -39 99 -31 8 3 25 -4 39 -15 14
-11 41 -23 61 -26 19 -3 40 -12 46 -19 6 -8 18 -14 25 -14 18 0 170 -77 211
-107 17 -13 34 -23 37 -23 11 0 136 -94 136 -102 0 -5 11 -13 25 -18 14 -5 25
-14 25 -20 0 -5 6 -10 13 -10 19 0 227 -212 227 -231 0 -5 7 -12 15 -15 8 -4
15 -10 15 -15 0 -15 71 -109 83 -109 6 0 8 -3 4 -6 -8 -9 21 -64 33 -64 6 0
10 -9 10 -20 0 -12 10 -24 23 -30 12 -5 17 -9 10 -9 -14 -1 13 -60 31 -67 6
-2 12 -15 12 -29 3 -40 13 -58 29 -51 18 7 20 -10 3 -17 -10 -4 -10 -8 -2 -14
6 -4 15 -24 19 -43 4 -19 13 -38 19 -42 6 -4 11 -13 11 -20 2 -38 19 -90 32
-95 8 -3 12 -11 9 -18 -2 -7 2 -35 9 -61 l14 -49 -4 60 c-2 33 -4 66 -5 73 0
6 -5 11 -11 10 -6 -2 -13 6 -14 17 -1 11 -6 49 -9 85 -4 36 -12 69 -17 75 -6
6 -7 -4 -3 -25 4 -19 4 -32 0 -29 -13 13 -24 114 -13 121 6 4 -1 10 -16 13
-36 10 -36 34 1 28 21 -4 24 -2 12 6 -8 6 -23 11 -32 11 -10 0 -18 5 -18 10 0
6 8 10 18 11 9 1 2 6 -15 11 -18 6 -33 15 -33 19 0 12 15 11 62 -3 31 -9 38
-16 35 -30 -5 -17 3 -22 31 -19 22 3 13 -17 -10 -22 l-23 -4 23 -8 c17 -5 22
-13 19 -26 -3 -11 -1 -21 4 -24 4 -3 6 -12 2 -20 -3 -10 2 -15 16 -15 23 0 28
-15 9 -24 -10 -5 -10 -7 0 -12 6 -3 12 -14 12 -25 0 -12 7 -19 20 -19 27 0 25
-18 -2 -23 l-23 -4 23 -8 c16 -5 21 -13 17 -25 -3 -10 -1 -21 5 -25 7 -5 9
-20 6 -40 -7 -37 2 -50 22 -29 8 9 9 14 2 14 -7 0 -9 8 -5 19 10 33 -52 231
-72 231 -7 0 -10 7 -7 15 4 8 -18 64 -47 124 -45 93 -56 108 -68 98 -12 -10
-13 -9 -7 1 9 15 -12 73 -31 85 -7 4 -13 14 -13 21 0 7 -9 21 -20 31 -11 10
-22 27 -26 38 -3 11 -21 34 -39 52 -17 18 -35 40 -38 49 -4 9 -13 16 -22 16
-8 0 -15 7 -15 15 0 8 -9 19 -19 25 -11 5 -23 19 -26 30 -3 11 -13 20 -21 20
-8 0 -14 7 -14 15 0 9 -7 18 -16 22 -9 3 -46 35 -82 70 -96 93 -164 149 -189
157 -13 4 -23 13 -23 21 0 7 -14 16 -31 20 -17 4 -33 13 -36 21 -3 8 -11 14
-18 14 -7 0 -44 15 -81 34 -112 57 -144 70 -254 105 -58 19 -114 38 -125 42
-32 12 -123 29 -160 29 -18 0 -35 5 -37 12 -4 12 -374 19 -565 11z m-213 -63
c0 -5 -5 -10 -11 -10 -5 0 -7 5 -4 10 3 6 8 10 11 10 2 0 4 -4 4 -10z m823
-10 c4 0 5 5 2 10 -3 6 1 10 10 10 9 0 13 -4 10 -10 -3 -5 1 -10 10 -10 9 0
13 5 10 10 -4 6 5 10 20 10 14 0 28 -7 31 -15 7 -18 34 -20 34 -3 0 6 3 8 6 5
4 -4 2 -13 -5 -21 -9 -11 -7 -15 11 -20 13 -3 25 -1 26 4 2 6 16 10 31 10 20
0 27 -5 28 -20 2 -19 -2 -20 -50 -15 -29 3 -76 5 -105 5 -37 -1 -52 2 -47 10
4 7 19 9 35 5 25 -5 29 -3 27 14 -1 21 -17 30 -17 11 0 -5 -22 -10 -49 -10
-50 0 -68 10 -55 31 4 8 9 8 17 0 6 -6 15 -11 20 -11z m-760 3 c-7 -2 -21 -2
-30 0 -10 3 -4 5 12 5 17 0 24 -2 18 -5z m117 -5 c0 -5 -10 -9 -22 -10 -13 0
-29 -2 -36 -2 -7 -1 -17 -7 -21 -14 -6 -11 -10 -10 -15 3 -3 9 -4 20 -2 24 6
9 96 8 96 -1z m-343 -40 c-3 -8 -6 -5 -6 6 -1 11 2 17 5 13 3 -3 4 -12 1 -19z
m53 13 c0 -6 -4 -13 -10 -16 -5 -3 -10 1 -10 9 0 9 5 16 10 16 6 0 10 -4 10
-9z m52 -30 c2 -17 1 -28 -4 -25 -8 5 -12 54 -4 54 2 0 6 -13 8 -29z m258 19
c0 -11 -69 -10 -76 2 -3 4 13 8 35 8 23 0 41 -4 41 -10z m877 -12 c-3 -8 -6
-5 -6 6 -1 11 2 17 5 13 3 -3 4 -12 1 -19z m-1307 -17 c0 -6 -4 -13 -10 -16
-5 -3 -10 1 -10 9 0 9 5 16 10 16 6 0 10 -4 10 -9z m50 -16 c0 -14 -2 -25 -4
-25 -2 0 -6 11 -8 25 -3 14 -1 25 3 25 5 0 9 -11 9 -25z m1344 9 c3 -9 6 -17
6 -18 0 -8 -93 3 -102 12 -10 10 -2 11 36 7 32 -4 46 -3 41 5 -3 5 -2 10 3 10
6 0 13 -7 16 -16z m-1304 -4 c0 -5 -2 -10 -4 -10 -3 0 -8 5 -11 10 -3 6 -1 10
4 10 6 0 11 -4 11 -10z m1190 0 c0 -5 -12 -10 -27 -9 l-28 1 25 8 c14 4 26 8
28 9 1 1 2 -3 2 -9z m-1310 -47 c0 -43 -5 -41 -13 5 -4 18 -2 32 3 32 6 0 10
-16 10 -37z m-57 8 c-13 -11 -23 -25 -23 -32 0 -7 -3 -9 -7 -6 -10 11 19 57
36 57 12 -1 11 -5 -6 -19z m1567 -13 c0 -12 -39 -3 -53 11 -10 11 -8 12 11 6
15 -4 22 -2 22 7 0 10 3 9 10 -2 5 -8 10 -18 10 -22z m-1631 -11 c-2 -1 -12
-9 -22 -16 -15 -12 -17 -12 -11 3 3 9 13 16 22 16 8 0 13 -1 11 -3z m1677 -22
c10 -26 -1 -35 -13 -10 -6 14 -7 25 -2 25 5 0 12 -7 15 -15z m34 -5 c0 -5 -2
-10 -4 -10 -3 0 -8 5 -11 10 -3 6 -1 10 4 10 6 0 11 -4 11 -10z m50 -50 c0
-11 -2 -20 -4 -20 -2 0 -6 9 -9 20 -3 11 -1 20 4 20 5 0 9 -9 9 -20z m30 10
c0 -5 -2 -10 -4 -10 -3 0 -8 5 -11 10 -3 6 -1 10 4 10 6 0 11 -4 11 -10z
m-1950 -56 c0 -8 -4 -12 -10 -9 -5 3 -10 10 -10 16 0 5 5 9 10 9 6 0 10 -7 10
-16z m1957 -6 c-3 -8 -6 -5 -6 6 -1 11 2 17 5 13 3 -3 4 -12 1 -19z m80 -40
c-3 -8 -6 -5 -6 6 -1 11 2 17 5 13 3 -3 4 -12 1 -19z m83 -41 c0 -5 -4 -5 -10
-2 -5 3 -10 14 -10 23 0 15 2 15 10 2 5 -8 10 -19 10 -23z m30 23 c0 -5 -2
-10 -4 -10 -3 0 -8 5 -11 10 -3 6 -1 10 4 10 6 0 11 -4 11 -10z m-70 -16 c0
-8 -5 -12 -10 -9 -6 4 -8 11 -5 16 9 14 15 11 15 -7z m156 -72 c1 -26 -11 -20
-19 8 -3 14 -1 20 6 17 7 -2 13 -13 13 -25z m-36 -8 c0 -8 -5 -12 -10 -9 -6 4
-8 11 -5 16 9 14 15 11 15 -7z m74 -16 c14 -43 15 -79 3 -75 -6 2 -11 10 -9
17 2 7 -2 26 -7 41 -6 19 -7 29 0 29 5 0 11 -6 13 -12z m-34 -24 c0 -8 -5 -12
-10 -9 -6 4 -8 11 -5 16 9 14 15 11 15 -7z m83 -56 c6 -40 2 -44 -23 -28 -11
7 -11 10 -2 10 9 0 11 10 6 38 -4 24 -3 34 3 27 6 -5 13 -27 16 -47z m40 -40
c6 -40 2 -44 -23 -28 -12 8 -12 10 -1 10 10 0 12 9 6 38 -4 23 -3 33 3 27 5
-5 12 -27 15 -47z m37 -21 c0 -18 -2 -19 -10 -7 -13 20 -13 43 0 35 6 -3 10
-16 10 -28z m37 -26 c3 -11 13 -21 24 -24 12 -3 19 -14 18 -29 l0 -23 -11 23
c-6 12 -16 22 -23 22 -6 0 -17 11 -23 25 -8 17 -8 25 -1 25 6 0 13 -9 16 -19z
m-29 -26 c-3 -3 -13 -2 -22 1 -14 5 -15 9 -4 15 13 8 36 -6 26 -16z m37 -35
c-3 -4 -15 -6 -27 -2 -21 5 -21 6 -2 12 21 8 37 3 29 -10z m66 -13 c-1 -12
-15 -9 -19 4 -3 6 1 10 8 8 6 -3 11 -8 11 -12z m-31 -23 c0 -7 -8 -10 -20 -7
-11 3 -20 8 -20 12 0 4 9 7 20 7 11 0 20 -6 20 -12z m40 -14 c0 -5 -2 -10 -4
-10 -3 0 -8 5 -11 10 -3 6 -1 10 4 10 6 0 11 -4 11 -10z m30 0 c0 -5 -4 -10
-10 -10 -5 0 -10 5 -10 10 0 6 5 10 10 10 6 0 10 -4 10 -10z m-60 -26 c0 -12
-4 -12 -20 -4 -11 6 -20 12 -20 13 0 2 9 3 20 4 12 1 20 -4 20 -13z m30 -4 c0
-5 -2 -10 -4 -10 -3 0 -8 5 -11 10 -3 6 -1 10 4 10 6 0 11 -4 11 -10z m35 -10
c3 -5 1 -10 -4 -10 -6 0 -11 5 -11 10 0 6 2 10 4 10 3 0 8 -4 11 -10z m-25
-24 c0 -9 -7 -12 -20 -9 -11 3 -20 9 -20 14 0 5 9 9 20 9 11 0 20 -6 20 -14z
m38 -51 c-2 -2 -14 -2 -26 2 -25 6 -30 23 -7 23 8 0 15 8 16 18 0 10 5 6 11
-11 5 -16 8 -30 6 -32z m32 24 c0 -5 -4 -9 -10 -9 -5 0 -10 7 -10 16 0 8 5 12
10 9 6 -3 10 -10 10 -16z m30 -29 c0 -5 -7 -10 -16 -10 -10 0 -14 -6 -11 -14
4 -10 -2 -13 -19 -12 -13 0 -24 6 -24 13 0 7 7 10 17 6 12 -5 15 -2 10 10 -5
13 -1 17 18 17 14 0 25 -4 25 -10z m5 -40 c3 -5 1 -10 -4 -10 -6 0 -11 5 -11
10 0 6 2 10 4 10 3 0 8 -4 11 -10z m-4 -22 c22 -6 39 -17 39 -25 0 -8 -4 -11
-10 -8 -5 3 -10 0 -10 -8 0 -10 -8 -13 -25 -9 -28 5 -34 22 -8 22 9 0 13 3 9
8 -8 7 -13 8 -41 11 -17 1 -21 21 -4 21 7 0 29 -5 50 -12z m79 -59 c0 -5 -11
-9 -25 -9 -14 0 -25 4 -25 9 0 5 11 9 25 9 14 0 25 -4 25 -9z"/>
<path d="M3220 4209 c0 -5 5 -7 10 -4 6 3 10 8 10 11 0 2 -4 4 -10 4 -5 0 -10
-5 -10 -11z"/>
<path d="M3675 4270 c3 -5 8 -10 11 -10 2 0 4 5 4 10 0 6 -5 10 -11 10 -5 0
-7 -4 -4 -10z"/>
<path d="M4011 4263 c-6 -10 -11 -12 -11 -5 0 17 -25 15 -40 -3 -7 -8 -21 -15
-31 -15 -11 0 -19 -4 -19 -10 0 -5 5 -10 10 -10 6 0 10 -8 10 -18 0 -18 48
-72 65 -72 4 0 15 -7 24 -15 9 -8 43 -37 76 -63 73 -60 245 -240 245 -258 0
-4 7 -14 15 -23 42 -43 75 -86 75 -98 0 -7 5 -13 10 -13 6 0 15 -11 20 -25 5
-14 13 -25 18 -25 4 0 14 -16 22 -35 8 -19 17 -35 22 -35 4 0 16 -18 25 -40
10 -22 21 -40 25 -40 5 0 8 -9 8 -20 0 -11 6 -23 14 -26 8 -3 12 -12 9 -20 -3
-8 0 -14 6 -14 6 0 11 -7 11 -15 0 -15 19 -56 31 -65 4 -3 10 -20 14 -38 4
-18 13 -36 20 -38 7 -3 16 -25 20 -50 3 -24 11 -44 17 -44 6 0 8 9 5 20 -3 11
-1 20 4 20 14 0 11 -48 -3 -53 -10 -4 -10 -7 -1 -14 7 -5 15 -28 19 -51 4 -23
11 -42 16 -42 5 0 6 15 3 33 -8 42 -13 87 -14 115 -1 12 -7 22 -15 22 -10 0
-17 17 -21 55 -4 30 -13 59 -20 63 -18 11 -28 59 -12 65 6 2 0 8 -15 12 -16 4
-28 13 -28 20 0 7 -3 20 -6 29 -4 11 0 16 12 17 11 1 6 5 -13 11 -39 13 -45
33 -8 26 14 -3 25 -1 25 3 0 8 -18 13 -47 12 -7 -1 -13 5 -13 13 0 8 4 13 9
11 5 -1 8 2 8 8 -1 5 -6 10 -12 11 -5 0 -16 2 -22 2 -7 1 -13 7 -13 13 0 7 11
9 26 6 17 -3 22 -1 16 5 -6 6 -25 12 -43 14 -35 4 -46 10 -36 21 4 4 33 -2 65
-12 31 -10 51 -20 45 -22 -20 -7 -15 -23 7 -23 25 0 27 -17 3 -23 -15 -3 -13
-6 10 -17 15 -7 30 -11 33 -8 6 7 -16 55 -51 113 -14 22 -30 50 -36 63 -7 12
-16 22 -20 22 -5 0 -15 16 -23 35 -16 37 -21 44 -78 106 -21 22 -38 45 -38 49
0 5 -9 14 -20 20 -11 6 -20 17 -20 24 0 17 -126 146 -210 215 -36 30 -67 57
-70 60 -3 4 -26 24 -52 44 -43 35 -47 37 -57 20z m90 -96 c-1 -12 -15 -9 -19
4 -3 6 1 10 8 8 6 -3 11 -8 11 -12z m-31 -23 c0 -8 -5 -12 -10 -9 -6 4 -8 11
-5 16 9 14 15 11 15 -7z m74 -16 c14 -43 15 -79 3 -75 -6 2 -11 10 -9 17 2 7
-2 26 -7 41 -6 19 -7 29 0 29 5 0 11 -6 13 -12z m-34 -24 c0 -8 -5 -12 -10 -9
-6 4 -8 11 -5 16 9 14 15 11 15 -7z m83 -57 c4 -25 2 -37 -5 -35 -6 2 -12 24
-14 48 -5 53 11 42 19 -13z m40 -40 c4 -25 2 -37 -5 -35 -6 2 -12 24 -14 48
-5 53 11 42 19 -13z m40 -39 c6 -40 2 -44 -23 -28 -11 7 -11 10 -2 10 9 0 11
10 6 38 -4 24 -3 34 3 27 6 -5 13 -27 16 -47z m40 -40 c3 -21 4 -38 2 -38 -13
0 -35 14 -35 22 0 5 5 6 11 3 7 -5 8 5 3 32 -4 25 -3 35 3 28 6 -5 13 -27 16
-47z m40 -40 c3 -21 4 -38 2 -38 -13 0 -35 14 -35 22 0 5 5 6 11 3 7 -5 8 5 3
32 -4 25 -3 35 3 28 6 -5 13 -27 16 -47z m34 -7 c3 -11 13 -21 24 -24 12 -3
19 -14 18 -29 l0 -23 -11 23 c-6 12 -16 22 -23 22 -6 0 -17 11 -23 25 -8 17
-8 25 -1 25 6 0 13 -9 16 -19z m11 -66 c-3 -3 -13 -2 -22 1 -14 5 -15 9 -4 15
13 8 36 -6 26 -16z m68 -23 c1 -12 -3 -22 -7 -22 -5 0 -9 4 -9 9 0 5 -3 17 -7
27 -4 12 -2 15 8 12 8 -3 15 -14 15 -26z m-28 -12 c3 -9 -1 -11 -12 -7 -10 4
-22 7 -27 7 -5 0 -9 4 -9 8 0 14 43 7 48 -8z m63 -13 c-1 -12 -15 -9 -19 4 -3
6 1 10 8 8 6 -3 11 -8 11 -12z m-31 -27 c0 -5 -9 -6 -20 -3 -11 3 -20 9 -20
13 0 5 9 6 20 3 11 -3 20 -9 20 -13z m70 -11 c0 -5 -7 -9 -15 -9 -8 0 -15 -7
-15 -17 0 -21 -13 -9 -17 16 -2 14 4 19 22 19 14 0 25 -4 25 -9z m-60 -23 c0
-9 -7 -12 -20 -9 -11 3 -20 9 -20 14 0 5 9 9 20 9 11 0 20 -6 20 -14z m67 -25
c3 -11 14 -22 25 -24 11 -3 17 -10 13 -17 -5 -8 -11 -7 -23 2 -13 11 -15 10
-9 -4 5 -14 1 -18 -18 -18 -14 0 -25 4 -25 10 0 5 7 7 15 4 18 -7 18 -8 6 34
-6 21 -6 32 1 32 5 0 12 -9 15 -19z m-27 -16 c0 -17 -2 -18 -24 -9 -23 9 -20
24 4 24 11 0 20 -7 20 -15z m70 -55 c0 -5 -2 -10 -4 -10 -3 0 -8 5 -11 10 -3
6 -1 10 4 10 6 0 11 -4 11 -10z m30 0 c0 -5 -4 -10 -10 -10 -5 0 -10 5 -10 10
0 6 5 10 10 10 6 0 10 -4 10 -10z m37 -272 c-3 -8 -6 -5 -6 6 -1 11 2 17 5 13
3 -3 4 -12 1 -19z m42 -81 c0 -21 -1 -21 -9 -2 -12 28 -12 37 0 30 6 -3 10
-16 9 -28z"/>
<path d="M1213 4189 c-48 -44 -108 -101 -133 -127 -120 -127 -180 -196 -180
-207 0 -20 43 -27 57 -9 6 8 14 11 17 6 7 -12 -19 -25 -54 -27 -14 -1 -30 -3
-36 -4 -13 -1 -64 -72 -64 -89 0 -7 8 -12 18 -13 9 0 3 -5 -14 -10 -23 -6 -38
-21 -56 -56 -13 -27 -29 -57 -35 -68 -37 -71 -53 -107 -72 -165 -12 -36 -26
-72 -31 -82 -14 -24 -40 -132 -40 -163 0 -14 -4 -24 -9 -21 -15 9 -25 -94 -11
-107 9 -9 11 -8 10 3 -1 8 -1 31 0 50 l2 35 8 -30 c7 -27 8 -25 10 20 1 28 2
55 1 62 -1 6 8 14 19 18 15 5 20 15 20 41 0 33 13 46 23 22 3 -8 6 -6 6 5 1
10 -6 20 -14 23 -21 8 -19 21 5 27 18 5 26 27 21 64 -1 8 5 10 14 7 8 -3 15
-1 15 5 0 7 -7 14 -15 17 -22 9 -18 24 5 24 11 0 20 7 20 15 0 18 16 20 26 3
4 -6 -1 -17 -10 -24 -13 -9 -14 -13 -4 -17 10 -4 10 -6 1 -6 -7 -1 -13 -12
-13 -25 0 -14 -5 -28 -10 -31 -6 -4 -7 -11 -4 -17 4 -6 1 -14 -6 -18 -12 -7
-15 -19 -23 -85 -1 -12 3 -19 11 -18 6 2 12 -2 12 -7 0 -6 -9 -10 -19 -10 -11
0 -23 -4 -26 -10 -3 -5 3 -10 14 -10 27 0 26 -9 -4 -44 -17 -20 -22 -32 -14
-37 10 -6 9 -124 -1 -164 -1 -5 -1 -28 0 -50 l3 -40 7 45 c4 25 11 72 14 105
4 33 11 69 16 80 5 11 14 45 20 75 34 158 170 453 265 575 18 22 41 56 53 75
25 43 275 293 318 319 39 24 83 83 66 89 -7 2 -12 10 -12 18 0 15 -39 36 -77
40 -15 2 -48 -22 -110 -77z m87 37 c0 -3 -4 -8 -10 -11 -5 -3 -10 -1 -10 4 0
6 5 11 10 11 6 0 10 -2 10 -4z m-40 -34 c0 -5 -25 -34 -56 -65 -35 -35 -53
-60 -48 -68 5 -9 2 -10 -9 -6 -18 7 -42 -17 -33 -32 4 -5 -3 -9 -14 -8 -24 2
-28 27 -4 27 9 0 18 9 21 20 3 11 12 20 20 20 8 0 17 9 20 20 3 11 9 20 14 20
5 0 25 18 46 39 42 44 43 45 43 33z m-187 -205 c3 -8 -3 -13 -14 -13 -11 0
-19 6 -19 13 0 7 6 13 14 13 8 0 16 -6 19 -13z m-35 -43 c15 -15 15 -16 -5
-10 -27 8 -55 -21 -32 -34 11 -8 12 -11 1 -22 -11 -11 -13 -10 -10 1 5 22 -20
24 -32 2 -6 -12 -17 -21 -26 -21 -9 0 4 20 33 49 26 28 49 50 51 50 2 1 11 -6
20 -15z m-119 -158 c8 -10 9 -16 1 -21 -5 -3 -10 -1 -10 4 0 6 -7 11 -15 11
-8 0 -15 5 -15 10 0 15 26 12 39 -4z m-49 -36 c0 -5 7 -10 17 -10 15 0 15 -1
0 -18 -10 -10 -17 -24 -17 -30 0 -7 -4 -12 -10 -12 -5 0 -10 4 -10 9 0 6 5 13
10 16 16 10 12 35 -6 35 -8 0 -12 5 -9 10 3 6 10 10 16 10 5 0 9 -4 9 -10z
m-30 -85 c7 -9 9 -19 5 -23 -4 -4 -10 -1 -12 6 -3 6 -11 12 -19 12 -8 0 -14 5
-14 10 0 15 26 12 40 -5z m-50 -35 c0 -5 -4 -10 -10 -10 -5 0 -10 5 -10 10 0
6 5 10 10 10 6 0 10 -4 10 -10z m30 -20 c0 -5 -4 -10 -10 -10 -5 0 -10 5 -10
10 0 6 5 10 10 10 6 0 10 -4 10 -10z m-22 -33 c3 -16 1 -17 -17 -5 -25 16 -27
31 -4 26 10 -2 19 -11 21 -21z m-48 -27 c0 -5 -4 -10 -10 -10 -5 0 -10 5 -10
10 0 6 5 10 10 10 6 0 10 -4 10 -10z m27 -25 c-10 -7 -17 -20 -17 -29 0 -14
-3 -14 -20 -4 -25 16 -26 28 -1 28 10 0 22 7 25 16 3 8 11 12 17 8 9 -5 7 -11
-4 -19z m-67 -55 c0 -5 -2 -10 -4 -10 -3 0 -8 5 -11 10 -3 6 -1 10 4 10 6 0
11 -4 11 -10z m-40 -120 c0 -5 -4 -10 -10 -10 -5 0 -10 5 -10 10 0 6 5 10 10
10 6 0 10 -4 10 -10z"/>
<path d="M2563 4263 c9 -2 25 -2 35 0 9 3 1 5 -18 5 -19 0 -27 -2 -17 -5z"/>
<path d="M2643 4263 c9 -2 23 -2 30 0 6 3 -1 5 -18 5 -16 0 -22 -2 -12 -5z"/>
<path d="M2725 4261 c11 -5 38 -5 60 -1 38 7 36 8 -20 8 -40 1 -53 -2 -40 -7z"/>
<path d="M605 4155 c-28 -36 -55 -71 -60 -78 -6 -7 -26 -37 -45 -67 -19 -30
-40 -61 -47 -68 -7 -7 -13 -18 -13 -24 0 -6 -6 -19 -14 -27 -36 -42 -133 -253
-176 -386 -56 -171 -58 -180 -54 -184 8 -8 20 14 33 59 7 25 17 54 21 65 4 11
13 36 20 55 7 19 19 49 26 67 8 17 14 34 14 38 0 17 117 253 136 276 8 8 14
18 14 22 0 11 112 181 150 227 21 25 43 55 49 68 22 43 -5 21 -54 -43z"/>
<path d="M3690 4133 c0 -5 5 -15 10 -23 8 -12 10 -11 10 8 0 12 -4 22 -10 22
-5 0 -10 -3 -10 -7z"/>
<path d="M1535 4120 c-3 -5 -13 -6 -22 -3 -12 5 -15 2 -10 -10 7 -19 -9 -24
-17 -4 -3 8 -9 6 -21 -8 -9 -12 -11 -21 -5 -23 18 -6 11 -22 -10 -22 -13 0
-20 -7 -20 -20 0 -11 -7 -20 -15 -20 -8 0 -15 7 -15 15 0 8 -4 15 -10 15 -14
0 -13 -43 1 -57 9 -9 5 -14 -15 -19 -14 -3 -26 -12 -26 -20 0 -8 -8 -14 -17
-15 -12 0 -13 -2 -5 -6 7 -3 37 5 66 17 47 19 59 29 90 82 20 34 36 65 36 69
0 5 7 6 15 3 10 -4 15 0 15 15 0 23 -5 27 -15 11z"/>
<path d="M3821 4114 c0 -11 3 -14 6 -6 3 7 2 16 -1 19 -3 4 -6 -2 -5 -13z"/>
<path d="M2775 4110 c-3 -5 -1 -10 4 -10 6 0 11 5 11 10 0 6 -2 10 -4 10 -3 0
-8 -4 -11 -10z"/>
<path d="M2820 4079 c0 -6 14 -24 30 -41 33 -33 37 -30 15 11 -15 29 -45 49
-45 30z"/>
<path d="M3670 4080 c0 -5 5 -10 10 -10 6 0 10 5 10 10 0 6 -4 10 -10 10 -5 0
-10 -4 -10 -10z"/>
<path d="M2722 4053 c-23 -29 -29 -67 -12 -78 6 -4 7 5 4 23 -5 27 -2 32 37
56 40 23 41 26 18 26 -16 0 -34 -10 -47 -27z"/>
<path d="M2863 3968 c-26 -39 -33 -44 -78 -49 -46 -5 -48 -6 -25 -16 15 -6 36
-7 55 -2 30 9 75 50 75 69 0 6 5 8 10 5 6 -3 10 3 10 14 0 32 -16 25 -47 -21z"/>
<path d="M1345 3989 c-10 -15 3 -25 16 -12 7 7 7 13 1 17 -6 3 -14 1 -17 -5z"/>
<path d="M1342 3850 c2 -8 19 -19 37 -25 18 -6 39 -19 46 -28 7 -9 17 -17 24
-17 11 0 16 -25 13 -62 -1 -12 5 -18 19 -18 12 0 19 -5 16 -12 -2 -7 -10 -12
-16 -10 -6 1 -11 -2 -11 -8 0 -5 14 -10 31 -10 24 0 30 4 25 15 -4 11 3 15 27
16 30 1 29 2 -16 16 -26 8 -45 18 -42 23 16 25 -51 103 -97 114 -14 3 -34 9
-43 13 -12 4 -16 2 -13 -7z"/>
<path d="M1634 3836 c-42 -19 -100 -138 -59 -122 8 3 15 0 15 -6 0 -6 3 -8 8
-4 4 4 7 13 7 19 0 6 11 14 25 18 14 4 19 7 13 8 -20 2 -15 25 7 39 11 7 20
19 20 27 0 8 7 15 15 15 8 0 15 5 15 10 0 14 -29 12 -66 -4z"/>
<path d="M2380 3799 c-55 -3 -6 -6 140 -7 271 -3 327 -8 333 -32 3 -13 12 -16
29 -13 28 5 111 -14 104 -25 -2 -4 7 -8 20 -8 31 -2 94 -32 94 -44 0 -5 6 -7
13 -5 6 3 27 -9 46 -25 26 -23 36 -27 43 -18 8 13 10 8 12 -27 1 -24 36 -33
50 -13 6 9 22 19 36 23 40 13 78 46 91 79 7 17 21 41 31 52 19 21 19 22 -8 28
-15 4 -32 2 -37 -3 -8 -8 -6 -11 7 -11 15 0 16 -3 6 -15 -7 -8 -19 -15 -27
-15 -9 0 -13 -6 -9 -15 4 -11 -2 -15 -20 -15 -21 0 -24 -3 -18 -27 6 -23 5
-25 -15 -20 -14 3 -24 -1 -31 -11 -5 -10 -10 -12 -10 -6 0 6 -13 14 -30 17
-16 4 -71 26 -122 51 -51 25 -125 54 -163 66 -39 12 -79 27 -90 33 -22 13
-321 17 -475 6z"/>
<path d="M1348 3783 c6 -2 18 -2 25 0 6 3 1 5 -13 5 -14 0 -19 -2 -12 -5z"/>
<path d="M2168 3752 c12 -8 72 -4 72 4 0 2 -19 4 -42 4 -26 0 -38 -4 -30 -8z"/>
<path d="M3476 3720 c9 -16 19 -30 24 -30 4 0 10 -9 13 -20 3 -11 13 -20 22
-20 9 0 24 -9 33 -19 10 -11 28 -23 42 -27 19 -5 12 6 -33 50 -31 31 -57 61
-57 67 0 6 -4 8 -9 5 -5 -3 -11 1 -15 9 -3 8 -12 15 -20 15 -13 0 -13 -4 0
-30z"/>
<path d="M2055 3711 c-3 -5 -1 -12 5 -16 5 -3 10 -2 10 4 0 5 12 12 28 14 26
4 25 4 -5 6 -17 0 -34 -3 -38 -8z"/>
<path d="M2005 3692 c-16 -10 -32 -18 -34 -20 -3 -1 1 -8 7 -14 9 -9 12 -9 12
0 0 7 6 12 13 12 7 0 18 9 25 20 7 11 11 20 10 19 -2 0 -16 -8 -33 -17z"/>
<path d="M1918 3644 c-27 -14 -41 -42 -15 -30 6 3 20 9 29 12 17 6 34 34 20
34 -4 -1 -19 -8 -34 -16z"/>
<path d="M1177 3598 c-22 -23 -48 -62 -59 -85 -11 -24 -24 -46 -29 -49 -16 -9
-10 -34 6 -28 8 4 15 1 15 -5 0 -6 -10 -11 -23 -11 -16 0 -26 -9 -36 -32 -7
-18 -21 -51 -31 -73 -33 -71 -58 -149 -65 -200 -4 -27 -11 -52 -16 -56 -14 -8
-24 -99 -10 -99 6 0 11 12 12 28 l1 27 8 -25 c6 -19 8 -11 9 33 1 53 12 74 24
45 3 -8 6 -6 6 4 1 9 -7 22 -16 27 -16 10 -16 11 5 17 21 6 27 24 24 68 -2 12
3 16 13 12 9 -3 15 0 15 9 0 8 -7 15 -15 15 -8 0 -15 5 -15 10 0 6 8 10 19 10
11 0 21 9 25 22 4 17 8 20 17 11 7 -7 8 -19 4 -30 -5 -10 -7 -22 -6 -27 1 -5
-3 -12 -9 -16 -7 -4 -12 -24 -13 -44 -1 -20 -5 -36 -9 -36 -4 0 -8 -4 -8 -10
0 -5 7 -10 15 -10 17 0 20 -16 5 -25 -6 -4 -8 -11 -5 -16 4 -5 -1 -9 -9 -9 -9
0 -16 -4 -16 -10 0 -5 7 -7 15 -4 8 4 15 1 15 -5 0 -6 -4 -11 -9 -11 -5 0 -9
-46 -9 -102 l0 -103 12 80 c19 124 53 245 95 340 53 119 102 207 151 275 32
45 35 79 8 107 -33 35 -67 29 -111 -19z m48 -8 c3 -5 -1 -10 -9 -10 -9 0 -16
5 -16 10 0 6 4 10 9 10 6 0 13 -4 16 -10z m-24 -50 c5 0 9 -4 9 -9 0 -5 -11
-4 -24 2 -20 9 -22 15 -13 26 10 12 12 12 15 -2 2 -10 8 -17 13 -17z m-41 -24
c0 -2 -7 -6 -15 -10 -8 -3 -15 -1 -15 4 0 6 7 10 15 10 8 0 15 -2 15 -4z m20
-26 c0 -5 -5 -10 -11 -10 -5 0 -7 5 -4 10 3 6 8 10 11 10 2 0 4 -4 4 -10z
m-23 -35 c2 -11 0 -14 -3 -7 -3 6 -12 12 -20 12 -8 0 -14 5 -14 11 0 19 35 4
37 -16z m-17 -45 c0 -5 -4 -10 -10 -10 -5 0 -10 5 -10 10 0 6 5 10 10 10 6 0
10 -4 10 -10z m-22 -33 c3 -16 1 -17 -17 -5 -25 16 -27 31 -4 26 10 -2 19 -11
21 -21z m-48 -27 c0 -5 -4 -10 -10 -10 -5 0 -10 5 -10 10 0 6 5 10 10 10 6 0
10 -4 10 -10z m27 -25 c-10 -7 -17 -20 -17 -29 0 -14 -3 -14 -20 -4 -25 16
-26 28 -1 28 10 0 22 7 25 16 3 8 11 12 17 8 9 -5 7 -11 -4 -19z"/>
<path d="M1857 3604 c-3 -3 -3 -13 0 -21 5 -12 7 -12 14 -1 15 23 4 40 -14 22z"/>
<path d="M1816 3575 c-3 -8 -11 -15 -19 -15 -15 0 -257 -244 -257 -259 0 -6 5
-11 10 -11 6 0 10 5 10 11 0 13 258 269 271 269 5 0 9 5 9 10 0 15 -17 12 -24
-5z"/>
<path d="M3224 3535 c-9 -22 3 -33 32 -27 20 4 25 1 22 -9 -3 -8 -14 -15 -26
-17 -26 -4 -30 -22 -5 -22 19 0 93 -48 106 -67 4 -7 15 -13 22 -13 8 0 15 -4
15 -10 0 -5 -5 -10 -12 -10 -9 0 -9 -3 0 -12 7 -7 38 -13 69 -13 89 -3 93 -3
87 -20 -4 -8 -1 -16 5 -16 6 -1 16 -3 21 -4 6 -1 13 -3 16 -4 4 0 1 -7 -5 -15
-9 -11 -8 -15 5 -20 23 -9 26 -3 18 28 -3 14 -12 26 -20 26 -8 0 -14 6 -14 14
0 8 -8 22 -17 32 -10 10 -18 21 -18 25 0 4 -3 10 -6 14 -14 13 4 41 42 68 22
15 37 32 34 37 -4 6 8 10 27 10 27 1 30 2 16 11 -12 7 -32 6 -65 -4 -41 -11
-51 -19 -68 -55 -42 -85 -71 -91 -101 -23 -21 49 -55 75 -123 95 -44 13 -53
13 -57 1z m156 -97 c0 -6 -7 -7 -16 -4 -9 3 -20 6 -25 6 -5 0 -9 4 -9 9 0 4
11 6 25 3 14 -2 25 -9 25 -14z m0 -28 c0 -5 -5 -10 -11 -10 -5 0 -7 5 -4 10 3
6 8 10 11 10 2 0 4 -4 4 -10z"/>
<path d="M2975 3500 c3 -5 8 -10 11 -10 2 0 4 5 4 10 0 6 -5 10 -11 10 -5 0
-7 -4 -4 -10z"/>
<path d="M4688 3482 c-23 -4 -24 -22 -2 -22 11 0 15 -6 11 -19 -5 -20 18 -38
28 -22 10 17 -19 67 -37 63z"/>
<path d="M3055 3460 c3 -5 11 -10 16 -10 6 0 7 5 4 10 -3 6 -11 10 -16 10 -6
0 -7 -4 -4 -10z"/>
<path d="M3090 3430 c0 -5 9 -10 21 -10 11 0 17 5 14 10 -3 6 -13 10 -21 10
-8 0 -14 -4 -14 -10z"/>
<path d="M3262 3428 c2 -6 10 -14 16 -16 7 -2 10 2 6 12 -7 18 -28 22 -22 4z"/>
<path d="M4650 3410 c0 -5 5 -10 10 -10 6 0 10 5 10 10 0 6 -4 10 -10 10 -5 0
-10 -4 -10 -10z"/>
<path d="M1940 3385 c0 -8 2 -15 4 -15 2 0 6 7 10 15 3 8 1 15 -4 15 -6 0 -10
-7 -10 -15z"/>
<path d="M3140 3390 c0 -5 5 -10 10 -10 6 0 10 5 10 10 0 6 -4 10 -10 10 -5 0
-10 -4 -10 -10z"/>
<path d="M3176 3392 c-3 -6 -1 -14 5 -17 15 -10 25 3 12 16 -7 7 -13 7 -17 1z"/>
<path d="M4705 3390 c3 -5 13 -10 21 -10 8 0 15 -10 16 -22 0 -13 1 -30 2 -38
1 -8 9 -16 19 -18 13 -3 17 -10 14 -23 -3 -10 -1 -21 4 -24 4 -3 6 -12 2 -20
-3 -10 1 -15 12 -15 11 0 15 5 12 14 -3 8 -9 31 -13 50 -3 20 -10 36 -15 36
-4 0 -13 18 -19 40 -9 33 -15 40 -36 40 -14 0 -22 -4 -19 -10z"/>
<path d="M3843 3372 c-19 -3 -63 -49 -63 -66 0 -3 11 -17 25 -32 14 -15 25
-33 25 -40 0 -8 5 -14 10 -14 6 0 15 -11 20 -25 5 -14 13 -25 17 -25 5 0 14
-15 22 -32 8 -18 19 -36 25 -40 6 -4 11 -11 11 -15 2 -19 19 -59 28 -65 6 -3
12 -12 13 -20 5 -32 25 -69 34 -63 5 3 10 1 10 -4 0 -6 -5 -11 -11 -11 -8 0
-8 -4 -1 -12 6 -7 13 -30 17 -51 4 -20 11 -40 17 -43 8 -5 7 16 -7 111 -1 11
-3 28 -4 38 0 9 -8 17 -16 17 -8 0 -15 7 -15 15 0 9 6 12 15 9 8 -4 15 -2 15
4 0 5 -10 13 -22 16 -22 7 -22 7 -3 16 14 6 16 9 4 9 -8 1 -24 8 -35 17 -18
15 -17 15 14 10 23 -4 32 -2 30 6 -2 6 -15 13 -28 15 -31 5 -51 23 -25 23 24
0 11 13 -17 17 -26 4 -34 10 -25 20 4 3 28 0 55 -8 34 -11 46 -20 44 -32 -2
-11 4 -17 18 -17 11 0 20 -4 20 -10 0 -5 -7 -10 -15 -10 -21 0 -19 -18 2 -22
10 -2 18 -12 18 -23 0 -14 6 -19 18 -17 9 2 17 -2 17 -8 0 -5 -7 -10 -15 -10
-8 0 -15 -4 -15 -10 0 -5 7 -10 15 -10 9 0 15 -10 16 -27 2 -54 4 -58 22 -55
19 3 23 -14 5 -21 -10 -4 -10 -8 2 -16 8 -6 14 -25 13 -46 -1 -28 2 -35 14
-31 8 3 16 6 18 6 8 0 -25 124 -35 130 -7 4 -14 21 -15 38 -2 27 -10 47 -54
142 -30 63 -56 108 -82 141 -16 20 -29 41 -29 46 0 11 -70 91 -70 79 0 -5 -6
-4 -12 1 -7 5 -23 7 -35 5z m42 -35 c19 -14 12 -43 -7 -31 -8 5 -9 -3 -5 -24
7 -33 2 -38 -22 -23 -11 7 -12 13 -4 23 12 15 13 48 1 48 -4 0 -8 5 -8 10 0
14 23 12 45 -3z m-55 -33 c0 -8 -4 -12 -10 -9 -5 3 -10 10 -10 16 0 5 5 9 10
9 6 0 10 -7 10 -16z m102 -19 c-2 -5 -8 -9 -13 -7 -5 1 -9 -5 -9 -15 0 -22
-13 -8 -17 18 -2 16 2 20 19 17 13 -2 21 -7 20 -13z m23 -35 c11 -5 14 -9 8
-9 -21 -1 -15 -18 8 -24 12 -3 18 -10 14 -17 -5 -8 -11 -7 -22 2 -14 11 -15
10 -9 -8 6 -19 3 -21 -19 -16 -14 2 -25 8 -25 13 0 5 7 6 15 3 18 -7 18 -8 6
34 -10 34 -8 36 24 22z m-35 -25 c0 -19 -11 -19 -36 0 -18 14 -18 14 9 15 17
0 27 -5 27 -15z m70 -55 c0 -5 -2 -10 -4 -10 -3 0 -8 5 -11 10 -3 6 -1 10 4
10 6 0 11 -4 11 -10z m25 0 c3 -5 1 -10 -4 -10 -6 0 -11 5 -11 10 0 6 2 10 4
10 3 0 8 -4 11 -10z m5 -210 c0 -5 -2 -10 -4 -10 -3 0 -8 5 -11 10 -3 6 -1 10
4 10 6 0 11 -4 11 -10z"/>
<path d="M5084 3160 c0 -118 2 -167 3 -107 2 59 2 155 0 215 -1 59 -3 10 -3
-108z"/>
<path d="M3212 3349 c2 -7 10 -15 17 -17 8 -3 12 1 9 9 -2 7 -10 15 -17 17 -8
3 -12 -1 -9 -9z"/>
<path d="M4690 3330 c0 -5 5 -10 10 -10 6 0 10 5 10 10 0 6 -4 10 -10 10 -5 0
-10 -4 -10 -10z"/>
<path d="M3252 3308 c6 -18 28 -21 28 -4 0 9 -7 16 -16 16 -9 0 -14 -5 -12
-12z"/>
<path d="M179 3258 c-9 -32 -13 -58 -9 -58 10 0 33 74 28 96 -2 11 -10 -5 -19
-38z"/>
<path d="M4958 3293 c6 -2 18 -2 25 0 6 3 1 5 -13 5 -14 0 -19 -2 -12 -5z"/>
<path d="M3292 3269 c2 -7 10 -15 17 -17 8 -3 12 1 9 9 -2 7 -10 15 -17 17 -8
3 -12 -1 -9 -9z"/>
<path d="M1493 3228 c-26 -37 -23 -46 6 -26 12 8 18 18 14 22 -4 4 3 9 15 13
12 3 19 9 16 14 -10 17 -29 8 -51 -23z"/>
<path d="M2900 3230 c0 -5 5 -10 11 -10 5 0 7 5 4 10 -3 6 -8 10 -11 10 -2 0
-4 -4 -4 -10z"/>
<path d="M3332 3229 c2 -7 10 -15 17 -17 8 -3 12 1 9 9 -2 7 -10 15 -17 17 -8
3 -12 -1 -9 -9z"/>
<path d="M3590 3231 c0 -5 9 -11 20 -14 13 -3 20 0 20 9 0 8 -9 14 -20 14 -11
0 -20 -4 -20 -9z"/>
<path d="M4730 3210 c0 -5 5 -10 11 -10 5 0 7 5 4 10 -3 6 -8 10 -11 10 -2 0
-4 -4 -4 -10z"/>
<path d="M1716 3170 c-20 -22 -36 -48 -37 -58 0 -10 -3 -12 -6 -4 -7 18 -73
16 -73 -3 0 -8 -4 -15 -10 -15 -5 0 -22 -13 -36 -30 -15 -16 -31 -27 -35 -24
-5 3 -9 1 -9 -4 0 -6 6 -12 14 -15 7 -3 16 -22 20 -41 4 -20 13 -36 20 -36 19
0 27 -50 10 -57 -16 -6 -19 -39 -4 -48 6 -3 10 -1 10 5 0 6 11 8 28 5 25 -6
25 -5 10 8 -27 21 -23 39 7 31 20 -5 34 3 79 46 37 37 52 59 49 71 -5 17 -8
16 -27 -9 -43 -56 -64 -71 -95 -70 -20 1 -33 7 -36 19 -4 11 -12 16 -21 12 -9
-3 -14 2 -15 13 -1 11 -3 29 -4 41 -2 16 8 27 41 44 23 13 41 26 38 30 -2 4 0
10 6 14 5 3 10 1 10 -6 0 -7 15 -26 33 -44 29 -28 34 -30 48 -16 14 15 14 19
-2 51 -10 19 -18 29 -19 22 0 -7 -4 -10 -10 -7 -16 10 -12 25 6 25 10 0 14 6
10 15 -3 8 3 19 13 25 15 7 37 50 26 50 -1 0 -19 -18 -39 -40z m-1 -100 c3 -5
1 -10 -4 -10 -6 0 -11 5 -11 10 0 6 2 10 4 10 3 0 8 -4 11 -10z"/>
<path d="M2976 3191 c-3 -5 1 -11 9 -15 8 -3 15 -1 15 4 0 13 -18 22 -24 11z"/>
<path d="M3370 3191 c0 -6 5 -13 10 -16 6 -3 10 1 10 9 0 9 -4 16 -10 16 -5 0
-10 -4 -10 -9z"/>
<path d="M3620 3190 c0 -5 5 -10 10 -10 6 0 10 5 10 10 0 6 -4 10 -10 10 -5 0
-10 -4 -10 -10z"/>
<path d="M4811 3176 c27 -28 34 -27 24 3 -4 12 -15 21 -27 21 -19 0 -19 -1 3
-24z"/>
<path d="M1431 3116 c-39 -80 -40 -100 -1 -59 30 32 39 50 20 38 -15 -10 -12
11 4 24 11 10 17 8 26 -6 9 -15 10 -12 5 15 -5 26 -3 32 11 32 22 0 10 13 -15
17 -14 2 -26 -13 -50 -61z"/>
<path d="M621 3154 c0 -11 3 -14 6 -6 3 7 2 16 -1 19 -3 4 -6 -2 -5 -13z"/>
<path d="M3662 3150 c0 -14 2 -19 5 -12 2 6 2 18 0 25 -3 6 -5 1 -5 -13z"/>
<path d="M3020 3150 c0 -5 5 -10 11 -10 5 0 7 5 4 10 -3 6 -8 10 -11 10 -2 0
-4 -4 -4 -10z"/>
<path d="M148 3115 c-6 -30 -3 -43 8 -33 3 4 4 19 2 35 l-3 28 -7 -30z"/>
<path d="M4370 3130 c0 -5 5 -10 10 -10 6 0 10 5 10 10 0 6 -4 10 -10 10 -5 0
-10 -4 -10 -10z"/>
<path d="M1546 3114 c-21 -20 -20 -24 3 -24 20 0 36 26 21 35 -4 3 -16 -2 -24
-11z"/>
<path d="M3060 3110 c0 -5 5 -10 11 -10 5 0 7 5 4 10 -3 6 -8 10 -11 10 -2 0
-4 -4 -4 -10z"/>
<path d="M3420 3110 c0 -5 5 -10 11 -10 5 0 7 5 4 10 -3 6 -8 10 -11 10 -2 0
-4 -4 -4 -10z"/>
<path d="M4820 3110 c0 -5 7 -10 15 -10 8 0 15 5 15 10 0 6 -7 10 -15 10 -8 0
-15 -4 -15 -10z"/>
<path d="M1493 3076 c-10 -11 -9 -15 3 -20 23 -9 24 -8 24 14 0 23 -10 25 -27
6z"/>
<path d="M4778 3065 c2 -14 6 -25 8 -25 2 0 4 11 4 25 0 14 -4 25 -9 25 -4 0
-6 -11 -3 -25z"/>
<path d="M4850 3079 c-11 -8 -12 -12 -2 -16 6 -2 12 -13 12 -24 0 -10 5 -19
10 -19 12 0 13 40 2 57 -5 8 -12 9 -22 2z"/>
<path d="M3100 3070 c0 -5 5 -10 11 -10 5 0 7 5 4 10 -3 6 -8 10 -11 10 -2 0
-4 -4 -4 -10z"/>
<path d="M1430 3030 c0 -5 5 -10 10 -10 6 0 10 5 10 10 0 6 -4 10 -10 10 -5 0
-10 -4 -10 -10z"/>
<path d="M3140 3030 c0 -5 5 -10 11 -10 5 0 7 5 4 10 -3 6 -8 10 -11 10 -2 0
-4 -4 -4 -10z"/>
<path d="M565 3020 c-3 -6 1 -7 9 -4 18 7 21 14 7 14 -6 0 -13 -4 -16 -10z"/>
<path d="M1381 2998 c-17 -46 -22 -80 -11 -73 5 3 10 16 11 28 0 21 1 21 9 2
7 -17 9 -15 9 13 1 17 6 32 11 32 6 0 10 5 10 10 0 20 -31 10 -39 -12z"/>
<path d="M4772 3001 c-10 -6 -11 -13 -3 -27 5 -11 13 -40 16 -66 9 -67 22 -60
15 8 -3 30 -6 64 -5 75 2 21 -3 23 -23 10z"/>
<path d="M4866 3001 c-4 -5 -2 -12 3 -15 5 -4 12 -2 15 3 4 5 2 12 -3 15 -5 4
-12 2 -15 -3z"/>
<path d="M3741 2984 c0 -11 3 -14 6 -6 3 7 2 16 -1 19 -3 4 -6 -2 -5 -13z"/>
<path d="M581 2954 c0 -11 3 -14 6 -6 3 7 2 16 -1 19 -3 4 -6 -2 -5 -13z"/>
<path d="M4422 2950 c0 -14 2 -19 5 -12 2 6 2 18 0 25 -3 6 -5 1 -5 -13z"/>
<path d="M3741 2953 c0 -5 4 -17 9 -28 8 -18 9 -17 9 8 1 15 -3 27 -9 27 -5 0
-10 -3 -9 -7z"/>
<path d="M4870 2950 c0 -5 5 -10 10 -10 6 0 10 5 10 10 0 6 -4 10 -10 10 -5 0
-10 -4 -10 -10z"/>
<path d="M5081 2914 c0 -11 3 -14 6 -6 3 7 2 16 -1 19 -3 4 -6 -2 -5 -13z"/>
<path d="M935 2911 c-3 -5 -1 -12 5 -16 5 -3 10 1 10 9 0 18 -6 21 -15 7z"/>
<path d="M4897 2913 c-3 -4 1 -16 8 -26 9 -13 15 -15 20 -7 4 7 1 19 -8 27 -8
8 -17 11 -20 6z"/>
<path d="M532 2870 c0 -14 2 -19 5 -12 2 6 2 18 0 25 -3 6 -5 1 -5 -13z"/>
<path d="M4057 2870 c3 -11 7 -20 9 -20 2 0 4 9 4 20 0 11 -4 20 -9 20 -5 0
-7 -9 -4 -20z"/>
<path d="M4820 2858 c0 -9 -6 -19 -12 -21 -10 -4 -10 -8 -1 -14 6 -5 11 -17
10 -27 -1 -10 3 -21 10 -23 8 -3 11 10 8 43 -4 44 -15 76 -15 42z"/>
<path d="M4538 2849 c-7 -18 13 -149 23 -149 8 0 0 115 -11 144 -5 15 -8 16
-12 5z"/>
<path d="M4907 2846 c-4 -10 -5 -21 -2 -24 9 -9 17 6 13 25 -3 17 -4 17 -11
-1z"/>
<path d="M5000 2815 c0 -28 4 -35 20 -35 11 0 20 5 20 11 0 5 -4 7 -10 4 -5
-3 -10 -1 -10 4 0 6 5 11 10 11 6 0 10 9 10 20 0 13 -7 20 -20 20 -16 0 -20
-7 -20 -35z"/>
<path d="M631 2779 c1 -33 4 -57 8 -54 9 10 9 115 -1 115 -4 0 -7 -27 -7 -61z"/>
<path d="M3781 2830 c1 -8 5 -26 9 -40 l8 -25 1 25 c0 14 -4 32 -9 40 -9 13
-10 13 -9 0z"/>
<path d="M1546 2804 c-8 -21 -8 -34 2 -34 4 0 8 11 8 25 2 29 -1 32 -10 9z"/>
<path d="M4050 2800 c-13 -9 -13 -11 0 -20 22 -14 26 -12 26 10 0 22 -4 24
-26 10z"/>
<path d="M4910 2790 c0 -5 5 -10 10 -10 6 0 10 5 10 10 0 6 -4 10 -10 10 -5 0
-10 -4 -10 -10z"/>
<path d="M4181 2773 c-1 -7 -8 -13 -16 -13 -8 0 -15 -4 -15 -10 0 -5 6 -10 14
-10 14 0 32 -82 22 -99 -3 -5 1 -22 9 -37 13 -26 14 -23 9 47 -6 68 -21 151
-23 122z"/>
<path d="M4066 2733 c10 -40 14 -41 14 -5 0 18 -5 32 -10 32 -6 0 -8 -11 -4
-27z"/>
<path d="M4826 2722 c-3 -5 -1 -22 4 -38 8 -29 8 -29 9 9 1 36 -3 45 -13 29z"/>
<path d="M4450 2710 c0 -5 5 -10 10 -10 6 0 10 5 10 10 0 6 -4 10 -10 10 -5 0
-10 -4 -10 -10z"/>
<path d="M84 2595 c0 -49 1 -71 3 -48 2 23 2 64 0 90 -2 26 -3 8 -3 -42z"/>
<path d="M4090 2631 c0 -6 5 -13 10 -16 6 -3 10 1 10 9 0 9 -4 16 -10 16 -5 0
-10 -4 -10 -9z"/>
<path d="M1022 2590 c0 -14 2 -19 5 -12 2 6 2 18 0 25 -3 6 -5 1 -5 -13z"/>
<path d="M4580 2558 c0 -16 5 -28 10 -28 13 0 13 20 0 40 -8 12 -10 9 -10 -12z"/>
<path d="M4862 2550 c0 -14 2 -19 5 -12 2 6 2 18 0 25 -3 6 -5 1 -5 -13z"/>
<path d="M1026 2531 c-9 -13 6 -111 16 -105 4 3 6 9 3 14 -3 5 -6 30 -7 55 -1
46 -3 52 -12 36z"/>
<path d="M664 2398 c0 -54 3 -98 6 -98 13 1 31 18 23 23 -4 3 -10 33 -11 67
-6 107 -20 113 -18 8z"/>
<path d="M4962 2425 c0 -16 2 -22 5 -12 2 9 2 23 0 30 -3 6 -5 -1 -5 -18z"/>
<path d="M1025 2390 c3 -5 8 -10 11 -10 2 0 4 5 4 10 0 6 -5 10 -11 10 -5 0
-7 -4 -4 -10z"/>
<path d="M1058 2367 c-8 -21 6 -112 17 -107 6 3 9 14 8 25 -1 11 -3 35 -4 53
-3 35 -14 50 -21 29z"/>
<path d="M301 2329 c-1 -56 9 -109 20 -109 9 0 0 105 -12 135 -6 14 -8 7 -8
-26z"/>
<path d="M948 2365 c-3 -6 -3 -26 1 -45 4 -19 9 -30 12 -25 7 14 -5 82 -13 70z"/>
<path d="M4212 2332 c-1 -24 -6 -41 -11 -38 -7 4 -22 -84 -26 -151 0 -6 -4
-15 -8 -19 -4 -4 -7 -19 -7 -33 0 -32 -38 -61 -51 -39 -7 10 -9 10 -9 -2 0 -9
6 -22 13 -29 10 -11 10 -14 0 -18 -20 -7 -15 -21 10 -26 19 -3 17 -5 -11 -12
-22 -5 -31 -12 -28 -21 3 -7 1 -16 -4 -19 -6 -4 -10 -1 -10 4 0 6 -7 11 -15
11 -8 0 -15 5 -15 11 0 6 7 8 15 5 9 -3 18 0 20 7 9 25 13 137 5 137 -15 0
-28 -25 -35 -68 -6 -36 -4 -41 9 -36 9 3 16 1 16 -5 0 -6 -10 -11 -23 -11 -20
0 -26 -9 -41 -56 -22 -69 -113 -250 -153 -301 -16 -21 -41 -57 -57 -80 -31
-46 -151 -164 -186 -183 -16 -9 -25 -8 -37 2 -15 12 -16 10 -9 -17 4 -16 24
-47 46 -67 56 -54 81 -51 147 20 89 94 147 159 163 182 8 12 28 40 43 62 76
107 197 372 197 431 0 12 4 27 9 32 17 20 55 282 49 335 -5 33 -5 33 -6 -8z
m-148 -429 c4 -9 2 -21 -4 -27 -7 -7 -10 -7 -10 1 0 6 -3 18 -6 27 -3 9 -2 16
4 16 5 0 13 -8 16 -17z m-21 -37 c10 -8 15 -16 10 -18 -11 -7 -54 17 -46 25 9
10 15 8 36 -7z m-3 -55 c0 -12 -2 -13 -9 -3 -4 8 -12 13 -17 12 -5 -1 -10 3
-12 8 -2 6 6 8 17 5 12 -3 21 -13 21 -22z m-50 -21 c0 -5 -7 -10 -16 -10 -8 0
-12 5 -9 10 3 6 10 10 16 10 5 0 9 -4 9 -10z m30 -20 c0 -5 -4 -10 -10 -10 -5
0 -10 5 -10 10 0 6 5 10 10 10 6 0 10 -4 10 -10z m-36 -16 c9 -3 16 -12 16
-20 0 -12 -4 -12 -20 -2 -30 19 -27 34 4 22z m-34 -44 c0 -5 7 -10 15 -10 8 0
15 -4 15 -10 0 -5 -7 -10 -15 -10 -8 0 -15 5 -15 10 0 6 -7 10 -16 10 -8 0
-12 5 -9 10 3 6 10 10 16 10 5 0 9 -4 9 -10z m-30 -85 c7 -9 9 -19 5 -23 -4
-4 -10 -1 -12 6 -3 6 -11 12 -19 12 -8 0 -14 5 -14 10 0 15 26 12 40 -5z m-50
-35 c0 -5 -7 -10 -16 -10 -8 0 -12 5 -9 10 3 6 10 10 16 10 5 0 9 -4 9 -10z
m30 -16 c0 -10 -33 -33 -47 -34 -7 0 -13 5 -13 10 0 6 9 10 20 10 11 0 20 5
20 10 0 6 5 10 10 10 6 0 10 -3 10 -6z m-67 -68 c4 -10 0 -12 -14 -9 -22 6
-26 23 -5 23 8 0 16 -6 19 -14z m-43 -36 c0 -5 -7 -10 -16 -10 -8 0 -12 5 -9
10 3 6 10 10 16 10 5 0 9 -4 9 -10z m-40 -40 c0 -5 -7 -10 -16 -10 -8 0 -12 5
-9 10 3 6 10 10 16 10 5 0 9 -4 9 -10z m-40 -40 c0 -5 -7 -10 -16 -10 -8 0
-12 5 -9 10 3 6 10 10 16 10 5 0 9 -4 9 -10z"/>
<path d="M565 2350 c-3 -5 1 -10 9 -10 9 0 16 5 16 10 0 6 -4 10 -9 10 -6 0
-13 -4 -16 -10z"/>
<path d="M5005 2318 c-7 -23 -10 -108 -4 -108 4 0 5 -9 2 -20 -3 -11 -9 -20
-14 -20 -5 0 -9 -27 -9 -59 0 -33 -4 -63 -10 -66 -5 -3 -10 -18 -10 -33 0 -15
-9 -53 -20 -85 -11 -31 -20 -66 -20 -77 0 -11 -4 -28 -9 -38 -4 -9 -23 -64
-42 -122 -18 -58 -36 -109 -41 -114 -4 -6 -8 -16 -8 -24 0 -7 -33 -79 -72
-159 -93 -186 -95 -189 -135 -242 -18 -24 -33 -48 -33 -53 0 -8 -69 -98 -183
-236 -61 -74 -236 -236 -304 -281 -25 -17 -58 -31 -72 -31 -21 0 -23 -2 -11
-10 11 -8 8 -9 -12 -4 -18 4 -35 -1 -55 -15 -148 -109 -404 -233 -633 -306
-47 -15 -102 -33 -123 -41 -20 -8 -51 -14 -68 -14 -17 0 -40 -5 -52 -12 -12
-6 -31 -13 -42 -14 -11 -1 -76 -10 -145 -18 -69 -9 -217 -18 -330 -21 -234 -5
-334 -10 -350 -20 -14 -9 -60 3 -60 15 0 6 37 8 90 6 50 -2 92 0 95 4 3 4 -28
12 -68 18 -39 5 -115 21 -167 35 -52 14 -102 27 -110 29 -11 2 -16 -13 -22
-66 -3 -39 -5 -74 -2 -78 6 -10 44 -11 44 0 0 4 15 7 32 7 548 7 618 9 488 15
-128 6 -123 6 95 9 127 2 214 6 195 10 -61 11 -19 18 109 20 102 1 128 4 143
18 10 9 27 18 36 19 9 1 48 5 86 8 43 4 74 13 80 21 6 8 34 18 61 22 28 3 55
13 61 21 6 8 34 17 62 20 39 3 53 9 57 23 5 13 16 19 38 19 21 0 36 7 45 20 7
11 23 20 36 20 12 0 31 9 41 20 10 11 27 20 38 20 12 0 30 9 42 20 11 11 31
21 44 23 13 2 29 11 36 20 7 9 17 17 24 17 6 0 16 9 23 20 16 25 25 25 31 3 4
-16 5 -16 6 -1 0 9 10 19 20 23 11 3 22 12 25 20 6 17 46 21 46 5 0 -5 11 -10
25 -10 14 0 25 3 25 8 0 15 78 90 87 81 4 -4 103 86 221 203 117 116 210 214
207 217 -4 3 -9 1 -13 -4 -10 -14 -42 -39 -42 -32 0 2 26 32 58 65 31 33 66
70 77 83 l20 23 -30 -18 -30 -19 20 24 c11 12 37 41 58 63 20 22 35 46 33 53
-3 7 8 27 24 44 15 17 26 38 23 46 -3 7 6 25 20 39 15 14 23 32 20 40 -3 8 4
24 16 35 12 12 21 32 21 49 0 17 5 30 11 30 6 0 9 6 6 14 -3 8 3 22 14 31 13
12 17 25 13 41 -5 18 0 29 17 44 16 12 19 19 10 20 -11 0 -10 4 3 19 12 13 15
27 10 45 -5 21 -3 26 12 26 18 1 18 2 2 13 -15 12 -15 15 8 32 16 11 22 24 19
35 -3 10 1 25 9 33 14 13 14 16 1 21 -19 7 -19 26 0 26 8 0 16 6 17 13 1 12 4
28 7 37 1 3 3 38 3 78 1 74 14 98 21 40 3 -21 4 -16 3 13 -1 36 2 45 13 41 10
-4 11 1 6 19 -12 37 -14 69 -4 69 17 0 9 18 -11 23 -23 6 -27 37 -5 37 8 0 15
9 15 20 0 22 -28 28 -35 8z m-295 -1088 c0 -5 -5 -10 -11 -10 -5 0 -7 5 -4 10
3 6 8 10 11 10 2 0 4 -4 4 -10z m-1220 -980 c0 -5 -5 -10 -11 -10 -5 0 -7 5
-4 10 3 6 8 10 11 10 2 0 4 -4 4 -10z"/>
<path d="M574 2303 c3 -10 8 -40 12 -68 3 -27 10 -52 14 -55 4 -3 13 -30 20
-60 7 -30 16 -59 20 -65 5 -5 13 -30 20 -55 7 -25 18 -52 25 -60 7 -8 16 -28
19 -45 4 -16 13 -33 19 -37 7 -4 12 -11 13 -15 2 -26 17 -63 25 -63 5 0 17
-18 26 -40 10 -22 21 -40 25 -40 5 0 8 -5 8 -10 0 -12 34 -62 68 -100 12 -13
22 -30 22 -36 0 -7 7 -14 15 -18 8 -3 15 -10 15 -16 0 -6 16 -26 35 -46 19
-19 35 -37 35 -40 0 -7 180 -184 187 -184 4 0 13 -7 22 -15 9 -9 45 -38 81
-65 36 -27 70 -54 77 -60 7 -5 15 -10 19 -10 4 0 22 -11 40 -25 18 -14 35 -25
37 -25 2 0 35 -17 73 -38 91 -50 256 -122 280 -122 11 0 30 -11 42 -25 22 -23
22 -26 8 -41 -9 -8 -16 -26 -16 -38 0 -13 -9 -35 -20 -49 -11 -14 -20 -32 -20
-39 0 -19 -42 -58 -63 -58 -9 0 -16 -5 -15 -12 4 -15 -35 -26 -99 -27 -71 -1
-67 -17 6 -26 61 -7 105 8 157 53 30 25 74 122 74 160 0 19 5 32 13 32 8 0 12
19 11 68 -1 37 -2 88 -3 115 -1 48 -14 63 -24 27 -5 -20 -5 -20 -39 -1 -18 10
-44 22 -58 26 -27 7 -113 45 -167 74 -10 5 -25 12 -33 15 -14 6 -39 22 -188
122 -64 44 -133 106 -241 218 -36 38 -75 78 -87 90 -12 11 -24 30 -28 41 -3
11 -24 40 -46 64 -22 25 -40 49 -40 54 0 5 -15 31 -34 57 -18 26 -37 58 -41
71 -4 13 -11 26 -15 29 -12 9 -70 136 -70 154 0 9 -4 15 -9 12 -5 -3 -12 13
-15 37 -4 23 -13 51 -20 62 -7 11 -19 49 -26 85 -8 35 -15 59 -18 52 -2 -7
-10 -12 -18 -12 -8 0 -14 -4 -14 -10 0 -5 6 -10 14 -10 8 0 14 -10 15 -22 6
-96 7 -101 26 -109 20 -8 20 -8 0 -9 -19 -1 -19 -1 -2 -14 10 -8 18 -28 19
-50 1 -28 5 -36 20 -36 20 0 24 -16 6 -24 -10 -3 -8 -8 4 -16 9 -6 15 -17 12
-24 -3 -8 4 -16 18 -21 l23 -7 -25 -7 -25 -8 29 -12 c16 -6 27 -13 25 -16 -7
-6 -79 19 -79 28 0 5 5 5 10 2 6 -3 10 -2 10 4 0 6 -11 13 -25 17 -27 7 -34
24 -10 24 8 0 15 5 15 10 0 6 -9 10 -20 10 -21 0 -28 19 -7 21 6 0 0 5 -14 10
-32 12 -48 69 -20 69 9 1 2 7 -15 14 -31 14 -44 38 -44 84 0 12 -6 22 -13 22
-9 0 -14 13 -15 33 -1 36 -18 87 -27 87 -4 0 -4 -8 -1 -17z m251 -439 c20 -8
35 -18 31 -21 -8 -8 -96 18 -96 28 0 13 23 11 65 -7z m1 -37 c4 -4 -2 -7 -14
-7 -12 0 -22 4 -22 9 0 10 26 9 36 -2z m39 -17 c3 -5 2 -10 -4 -10 -5 0 -13 5
-16 10 -3 6 -2 10 4 10 5 0 13 -4 16 -10z m-25 -24 c0 -9 -7 -12 -20 -9 -11 3
-20 9 -20 14 0 5 9 9 20 9 11 0 20 -6 20 -14z m33 -26 c4 -16 0 -20 -21 -19
-19 1 -21 3 -9 6 11 3 16 11 13 19 -3 8 -2 14 3 14 5 0 11 -9 14 -20z m22 10
c3 -5 1 -10 -4 -10 -6 0 -11 5 -11 10 0 6 2 10 4 10 3 0 8 -4 11 -10z m10 -40
c3 -5 1 -10 -4 -10 -6 0 -11 5 -11 10 0 6 2 10 4 10 3 0 8 -4 11 -10z m-25
-25 c0 -8 -7 -11 -20 -8 -11 3 -20 8 -20 12 0 4 9 7 20 8 11 1 20 -4 20 -12z
m65 -15 c3 -5 2 -10 -4 -10 -5 0 -13 5 -16 10 -3 6 -2 10 4 10 5 0 13 -4 16
-10z m-28 -27 c3 -7 -4 -9 -16 -6 -12 3 -18 9 -15 15 7 11 26 6 31 -9z m63
-24 c0 -6 -4 -7 -10 -4 -5 3 -10 11 -10 16 0 6 5 7 10 4 6 -3 10 -11 10 -16z
m-37 -16 c-7 -2 -19 -2 -25 0 -7 3 -2 5 12 5 14 0 19 -2 13 -5z m72 -13 c3 -5
1 -10 -4 -10 -6 0 -11 5 -11 10 0 6 2 10 4 10 3 0 8 -4 11 -10z m-60 -21 c11
-17 0 -20 -21 -4 -17 13 -17 14 -2 15 9 0 20 -5 23 -11z m35 -9 c0 -5 -2 -10
-4 -10 -3 0 -8 5 -11 10 -3 6 -1 10 4 10 6 0 11 -4 11 -10z m35 -10 c3 -5 2
-10 -4 -10 -5 0 -13 5 -16 10 -3 6 -2 10 4 10 5 0 13 -4 16 -10z m-25 -30 c0
-4 -9 -6 -21 -3 -15 4 -17 8 -8 14 14 8 29 3 29 -11z m65 -9 c3 -5 1 -12 -5
-16 -5 -3 -10 1 -10 9 0 18 6 21 15 7z m-38 -33 c-3 -8 -6 -5 -6 6 -1 11 2 17
5 13 3 -3 4 -12 1 -19z m70 -20 c-3 -8 -6 -5 -6 6 -1 11 2 17 5 13 3 -3 4 -12
1 -19z m43 -28 c0 -5 -2 -10 -4 -10 -3 0 -8 5 -11 10 -3 6 -1 10 4 10 6 0 11
-4 11 -10z m-20 -71 c0 -5 -4 -9 -10 -9 -5 0 -10 7 -10 16 0 8 5 12 10 9 6 -3
10 -10 10 -16z m40 -40 c0 -6 -4 -7 -10 -4 -5 3 -10 11 -10 16 0 6 5 7 10 4 6
-3 10 -11 10 -16z m107 -81 c-3 -7 -5 -2 -5 12 0 14 2 19 5 13 2 -7 2 -19 0
-25z m70 -20 c-3 -8 -6 -5 -6 6 -1 11 2 17 5 13 3 -3 4 -12 1 -19z m-30 -20
c-3 -7 -5 -2 -5 12 0 14 2 19 5 13 2 -7 2 -19 0 -25z m46 -18 c3 -11 1 -23 -4
-26 -5 -3 -9 6 -9 20 0 31 6 34 13 6z m75 -56 c-3 -14 -5 -12 -10 9 -3 19 -2
25 4 19 6 -6 8 -18 6 -28z m80 -45 c-3 -8 -7 -3 -11 10 -4 17 -3 21 5 13 5 -5
8 -16 6 -23z m39 -41 c-3 -7 -5 -2 -5 12 0 14 2 19 5 13 2 -7 2 -19 0 -25z
m81 -39 c-3 -8 -7 -3 -11 10 -4 17 -3 21 5 13 5 -5 8 -16 6 -23z"/>
<path d="M3250 2279 c0 -12 8 -23 20 -26 11 -3 20 -12 20 -19 0 -8 11 -19 25
-24 23 -9 30 -25 26 -57 -1 -7 3 -13 10 -13 24 0 -1 60 -41 96 -22 20 -40 43
-40 50 0 8 -4 14 -10 14 -5 0 -10 -9 -10 -21z"/>
<path d="M192 2270 c0 -14 2 -19 5 -12 2 6 2 18 0 25 -3 6 -5 1 -5 -13z"/>
<path d="M971 2280 c-10 -6 -12 -13 -5 -22 5 -7 11 -26 13 -43 3 -29 16 -53
25 -44 2 2 -1 30 -7 61 -10 46 -15 56 -26 48z"/>
<path d="M4582 2270 c0 -14 2 -19 5 -12 2 6 2 18 0 25 -3 6 -5 1 -5 -13z"/>
<path d="M3211 2263 c-20 -8 -71 -65 -71 -79 0 -6 17 4 37 22 20 19 40 34 44
34 4 0 9 7 13 15 6 16 1 17 -23 8z"/>
<path d="M1088 2246 c-22 -16 -23 -26 -2 -26 11 0 14 -5 10 -16 -3 -9 -3 -21
1 -27 4 -7 8 -19 8 -27 0 -8 5 -15 12 -15 6 0 15 -3 19 -7 4 -5 0 -8 -9 -8
-24 0 -21 -17 3 -23 13 -3 18 -11 14 -20 -3 -9 3 -17 18 -22 19 -6 20 -8 6
-12 -24 -6 -23 -19 2 -26 13 -3 18 -10 14 -21 -4 -12 0 -16 15 -16 12 0 21 -4
21 -10 0 -13 -10 -13 -65 2 -50 13 -60 28 -18 28 49 0 14 15 -44 19 -7 1 -13
6 -13 12 0 7 10 9 25 7 14 -3 25 -1 25 4 0 5 -13 11 -30 15 -33 6 -41 22 -12
24 9 1 3 6 -15 11 -26 9 -33 17 -38 49 -6 35 -8 37 -22 24 -10 -11 -12 -19 -5
-28 5 -7 13 -26 16 -44 4 -17 14 -34 22 -37 9 -3 13 -10 9 -16 -6 -10 13 -50
30 -62 6 -4 10 -11 11 -15 2 -26 18 -63 25 -63 5 0 14 -11 19 -25 5 -14 14
-25 20 -25 5 0 10 -6 10 -13 0 -8 17 -32 38 -55 37 -40 62 -53 62 -32 0 6 8
10 18 10 11 0 26 8 35 18 18 20 23 62 8 62 -5 0 -13 9 -16 21 -4 11 -19 33
-35 47 -15 15 -35 43 -44 62 -9 19 -30 60 -46 90 -17 30 -30 60 -30 67 0 6 -7
19 -16 28 -9 9 -21 36 -28 60 -10 39 -13 42 -28 31z m116 -305 c16 -6 27 -13
25 -15 -6 -6 -97 18 -106 28 -11 11 45 2 81 -13z m-4 -36 c0 -17 -2 -18 -24
-9 -23 9 -20 24 4 24 11 0 20 -7 20 -15z m61 -18 c-1 -12 -15 -9 -19 4 -3 6 1
10 8 8 6 -3 11 -8 11 -12z m-26 -17 c4 -6 -6 -10 -22 -9 -25 0 -26 1 -8 9 11
5 21 9 22 9 1 1 5 -3 8 -9z m60 -20 c3 -5 1 -10 -4 -10 -6 0 -11 5 -11 10 0 6
2 10 4 10 3 0 8 -4 11 -10z m-47 -16 c31 -9 28 -22 -4 -18 -29 3 -58 24 -33
24 7 0 24 -3 37 -6z"/>
<path d="M4088 2215 c-5 -59 -5 -60 19 -46 10 6 12 11 6 11 -7 0 -13 7 -13 16
0 8 4 13 8 10 5 -3 9 9 10 26 0 21 -2 27 -7 19 -7 -11 -9 -11 -13 0 -3 8 -7
-8 -10 -36z"/>
<path d="M211 2236 c-9 -10 -8 -15 4 -20 10 -4 15 1 15 14 0 24 -4 25 -19 6z"/>
<path d="M1018 2203 c6 -2 18 -2 25 0 6 3 1 5 -13 5 -14 0 -19 -2 -12 -5z"/>
<path d="M4572 2187 c-1 -16 -6 -26 -11 -23 -9 6 -21 -40 -21 -85 0 -15 -5
-31 -10 -34 -6 -4 -8 -15 -5 -26 4 -12 -2 -26 -18 -41 -31 -30 -40 -65 -19
-77 13 -8 10 -12 -18 -24 -28 -12 -31 -16 -13 -16 33 -1 35 -16 2 -17 -16 -1
-29 3 -29 7 0 5 -7 9 -15 9 -8 0 -15 5 -15 10 0 6 9 10 20 10 16 0 20 7 21 38
1 20 2 52 4 70 1 17 -1 32 -6 32 -5 0 -9 -9 -9 -21 0 -11 -4 -17 -10 -14 -5 3
-10 -3 -10 -14 0 -26 -46 -167 -65 -203 -8 -14 -15 -31 -15 -37 0 -14 -68
-154 -99 -205 -20 -31 -22 -40 -10 -48 12 -8 12 -9 -1 -6 -8 3 -30 -16 -52
-46 -41 -55 -44 -62 -25 -69 6 -2 5 -3 -3 -2 -15 2 -40 -17 -40 -31 0 -3 -28
-35 -62 -71 -35 -35 -64 -74 -64 -86 -2 -26 47 -77 74 -77 43 0 201 194 297
366 113 203 215 489 215 604 0 23 5 50 11 61 5 11 8 37 6 57 -3 28 -4 30 -5 9z
m-148 -353 c19 -7 21 -30 4 -37 -10 -4 -9 -8 2 -16 13 -9 12 -12 -8 -17 -12
-4 -21 -11 -20 -18 3 -12 -10 -16 -29 -9 -20 8 -15 23 7 23 20 0 26 17 22 63
-2 19 -1 20 22 11z m-34 -145 c0 -5 -4 -9 -10 -9 -5 0 -10 7 -10 16 0 8 5 12
10 9 6 -3 10 -10 10 -16z m-27 -23 c14 -11 15 -16 6 -22 -7 -4 -15 -2 -17 4
-2 7 -10 12 -18 12 -9 0 -12 5 -9 10 8 13 16 12 38 -4z m-6 -49 c-6 -19 -24
-18 -29 1 -4 15 -1 18 14 14 10 -2 17 -9 15 -15z m-34 -31 c14 -11 15 -16 6
-22 -7 -4 -15 -2 -17 4 -2 7 -10 12 -18 12 -9 0 -12 5 -9 10 8 13 16 12 38 -4z
m-43 -81 c7 -9 9 -19 5 -23 -4 -4 -10 -1 -12 6 -3 6 -11 12 -19 12 -9 0 -12 5
-9 10 9 14 21 12 35 -5z m-20 -55 c0 -5 -4 -10 -10 -10 -5 0 -10 5 -10 10 0 6
5 10 10 10 6 0 10 -4 10 -10z m-25 -21 c4 -6 5 -12 2 -15 -7 -7 -37 7 -37 17
0 13 27 11 35 -2z m-45 -39 c0 -5 7 -10 16 -10 14 0 14 -3 4 -15 -7 -8 -16
-15 -21 -15 -5 0 -6 7 -3 15 4 10 0 15 -11 15 -9 0 -13 5 -10 10 3 6 10 10 16
10 5 0 9 -4 9 -10z m-10 -60 c0 -5 -5 -10 -11 -10 -5 0 -7 5 -4 10 3 6 8 10
11 10 2 0 4 -4 4 -10z m-23 -27 c3 -7 -3 -9 -16 -6 -12 3 -21 10 -21 15 0 13
32 6 37 -9z m-47 -33 c0 -5 -7 -10 -15 -10 -8 0 -15 5 -15 10 0 6 7 10 15 10
8 0 15 -4 15 -10z m-40 -39 c0 -12 -20 -25 -27 -18 -7 7 6 27 18 27 5 0 9 -4
9 -9z m-40 -43 c0 -16 -3 -19 -11 -11 -6 6 -8 16 -5 22 11 17 16 13 16 -11z
m3 -48 c3 -11 1 -20 -4 -20 -5 0 -9 9 -9 20 0 11 2 20 4 20 2 0 6 -9 9 -20z"/>
<path d="M305 2190 c4 -6 11 -8 16 -5 14 9 11 15 -7 15 -8 0 -12 -5 -9 -10z"/>
<path d="M1900 2191 c0 -6 4 -13 10 -16 6 -3 7 1 4 9 -7 18 -14 21 -14 7z"/>
<path d="M339 2168 c-3 -38 -1 -99 4 -105 3 -3 14 -3 23 1 12 4 13 10 6 19
-12 14 -12 15 -12 62 0 32 -19 52 -21 23z"/>
<path d="M4451 2145 c-2 -22 -4 -54 -6 -72 -2 -23 1 -30 11 -26 8 3 11 10 8
15 -4 6 0 14 7 19 10 7 11 11 2 17 -6 4 -13 25 -16 47 l-4 40 -2 -40z"/>
<path d="M5084 1955 c0 -126 2 -177 3 -112 2 65 2 168 0 230 -1 62 -3 9 -3
-118z"/>
<path d="M230 2150 c0 -11 4 -20 9 -20 5 0 7 9 4 20 -3 11 -7 20 -9 20 -2 0
-4 -9 -4 -20z"/>
<path d="M1621 2144 c0 -11 3 -14 6 -6 3 7 2 16 -1 19 -3 4 -6 -2 -5 -13z"/>
<path d="M3150 2134 c0 -11 9 -25 21 -32 32 -20 35 -6 6 24 -24 24 -27 24 -27
8z"/>
<path d="M1050 2129 c0 -5 9 -9 20 -9 11 0 20 2 20 4 0 2 -9 6 -20 9 -11 3
-20 1 -20 -4z"/>
<path d="M3300 2115 c-13 -14 -29 -25 -37 -25 -7 0 -13 -4 -13 -9 0 -4 -11 -6
-24 -4 -13 3 -26 0 -30 -5 -3 -6 11 -12 34 -14 22 -2 40 -1 40 3 0 3 17 18 37
32 28 20 40 24 50 15 7 -6 13 -7 13 -3 0 8 -31 34 -41 35 -3 0 -16 -11 -29
-25z"/>
<path d="M4070 2130 c0 -13 11 -13 30 0 12 8 11 10 -7 10 -13 0 -23 -4 -23
-10z"/>
<path d="M655 2120 c3 -5 8 -10 11 -10 2 0 4 5 4 10 0 6 -5 10 -11 10 -5 0 -7
-4 -4 -10z"/>
<path d="M241 2104 c0 -11 3 -14 6 -6 3 7 2 16 -1 19 -3 4 -6 -2 -5 -13z"/>
<path d="M1940 2110 c0 -5 5 -10 10 -10 6 0 10 5 10 10 0 6 -4 10 -10 10 -5 0
-10 -4 -10 -10z"/>
<path d="M4101 2084 c0 -11 3 -14 6 -6 3 7 2 16 -1 19 -3 4 -6 -2 -5 -13z"/>
<path d="M1980 2078 c0 -9 5 -20 11 -23 17 -11 18 -2 3 19 -12 17 -14 17 -14
4z"/>
<path d="M3116 2060 c-29 -32 -30 -55 -1 -26 9 9 25 21 36 27 11 5 17 14 14
20 -10 15 -18 11 -49 -21z"/>
<path d="M3453 2073 c-4 -10 -11 -22 -17 -26 -7 -6 -6 -7 3 -5 19 5 47 48 32
48 -6 0 -15 -8 -18 -17z"/>
<path d="M140 2059 c0 -45 21 -154 30 -157 5 -2 12 -30 16 -63 4 -40 11 -59
20 -59 8 0 13 -8 12 -17 -5 -38 14 -103 29 -103 10 0 13 -6 9 -16 -4 -9 -1
-23 6 -32 7 -8 12 -17 11 -19 -8 -11 -1 -23 15 -23 15 0 15 -2 2 -11 -11 -8
-12 -12 -2 -16 6 -2 12 -13 12 -23 0 -10 5 -22 10 -25 6 -4 8 -10 5 -15 -3 -4
2 -13 9 -20 8 -6 18 -25 21 -41 4 -16 11 -32 16 -35 6 -3 14 -17 19 -30 5 -13
17 -24 27 -24 15 0 16 -2 3 -10 -13 -9 -13 -12 3 -21 9 -5 17 -17 17 -24 0 -8
7 -15 16 -15 12 0 15 -6 11 -21 -4 -14 1 -23 16 -29 14 -5 16 -9 7 -10 -11 0
-10 -4 5 -16 11 -8 20 -22 20 -32 0 -9 7 -17 15 -17 8 0 14 -8 14 -18 -1 -9
10 -29 24 -44 15 -16 27 -32 27 -37 0 -5 9 -12 20 -16 11 -4 20 -16 20 -26 0
-10 6 -18 13 -16 7 1 17 -9 22 -23 5 -14 17 -25 27 -26 16 0 15 -1 -2 -9 -22
-8 -24 -7 45 -33 11 -4 11 -6 -4 -6 -13 -1 -2 -16 43 -60 33 -32 61 -64 61
-70 0 -6 9 -11 20 -11 13 0 20 -7 20 -19 0 -10 9 -21 20 -24 14 -3 21 -17 26
-46 8 -48 23 -65 18 -21 -2 17 -1 30 1 30 6 0 27 -48 30 -65 0 -5 6 -9 13 -7
7 1 17 -9 22 -24 6 -14 15 -22 21 -19 6 4 13 -2 16 -13 2 -11 16 -25 29 -31
13 -6 24 -14 24 -19 0 -13 75 -33 94 -26 9 3 16 1 16 -5 0 -6 -15 -11 -32 -12
l-33 -1 33 -11 c18 -7 36 -17 40 -23 4 -6 24 -17 44 -24 20 -8 35 -17 33 -21
-8 -11 53 -32 80 -27 14 3 28 1 31 -3 3 -5 -10 -9 -28 -10 l-33 0 40 -16 c22
-9 42 -20 45 -23 11 -16 78 -30 119 -25 25 2 49 1 55 -3 6 -4 -14 -9 -44 -12
l-55 -6 62 -14 c34 -7 60 -17 58 -21 -3 -4 15 -13 39 -20 25 -7 44 -18 43 -23
-1 -6 7 -11 18 -12 11 0 30 -4 43 -8 14 -5 22 -3 22 5 0 9 3 9 14 0 10 -8 16
-9 21 -1 3 5 3 10 -2 10 -4 0 0 5 9 11 32 18 35 13 37 -63 2 -72 19 -58 23 18
4 76 -4 94 -37 94 -13 0 -26 4 -29 9 -3 5 -18 12 -33 15 -33 8 -122 41 -178
66 -102 45 -222 106 -244 122 -13 10 -32 18 -41 18 -10 0 -23 7 -30 15 -7 8
-32 25 -56 37 -24 12 -54 32 -66 45 -12 13 -28 23 -35 23 -8 0 -16 7 -19 15
-4 8 -11 15 -16 15 -12 0 -81 54 -126 98 -18 17 -35 32 -37 32 -2 0 -20 16
-39 35 -20 19 -40 35 -46 35 -5 0 -10 4 -10 9 0 4 -19 28 -42 53 -24 25 -60
65 -81 89 -21 24 -51 60 -68 79 -17 19 -47 60 -67 90 -20 30 -40 57 -44 60
-12 9 -58 80 -58 90 0 5 -8 17 -19 27 -10 10 -22 29 -26 43 -4 14 -13 32 -20
40 -12 15 -95 178 -120 235 -7 17 -19 46 -28 65 -8 19 -21 53 -28 75 -6 22
-15 45 -19 50 -5 6 -11 32 -15 58 -4 26 -13 54 -20 61 -8 7 -18 46 -24 86 -10
72 -21 104 -21 59z m1000 -1572 c9 -3 3 -6 -12 -6 -20 -1 -28 4 -28 15 0 12 4
14 13 7 6 -6 19 -13 27 -16z m130 -77 c0 -5 -10 -10 -22 -10 -19 0 -20 2 -8
10 19 13 30 13 30 0z m40 -20 c0 -5 6 -10 14 -10 8 0 18 -4 21 -10 3 -6 -5
-10 -18 -10 -16 0 -26 7 -30 20 -3 11 -1 20 4 20 5 0 9 -4 9 -10z m170 -100
c0 -5 -12 -10 -27 -10 -22 0 -25 2 -13 10 20 13 40 13 40 0z m190 -80 c0 -5
-7 -10 -16 -10 -8 0 -12 5 -9 10 3 6 10 10 16 10 5 0 9 -4 9 -10z"/>
<path d="M250 2071 c0 -6 5 -13 10 -16 6 -3 10 1 10 9 0 9 -4 16 -10 16 -5 0
-10 -4 -10 -9z"/>
<path d="M695 2061 c-3 -5 -1 -12 5 -16 5 -3 10 1 10 9 0 18 -6 21 -15 7z"/>
<path d="M368 2046 c-22 -16 -23 -26 -4 -26 9 0 14 -12 14 -34 0 -39 9 -59 22
-51 5 3 11 1 15 -5 3 -5 -1 -10 -9 -10 -9 0 -16 -4 -16 -10 0 -5 7 -10 15 -10
9 0 15 -9 15 -25 0 -16 6 -25 16 -25 13 0 15 7 9 37 -4 20 -15 53 -25 72 -10
20 -22 50 -27 68 -7 28 -10 30 -25 19z"/>
<path d="M266 2013 c4 -16 12 -41 20 -58 7 -16 17 -46 22 -65 5 -19 14 -34 19
-33 5 1 10 -12 10 -28 0 -16 7 -37 16 -47 16 -15 17 -15 17 1 0 11 8 17 23 18
20 1 20 1 -5 11 -18 6 -34 23 -44 46 -9 20 -20 45 -25 54 -5 10 -9 25 -9 33 0
8 -4 15 -9 15 -5 0 -12 18 -16 40 -4 22 -11 40 -16 40 -5 0 -6 -12 -3 -27z"/>
<path d="M1420 2030 c0 -5 5 -10 11 -10 5 0 7 5 4 10 -3 6 -8 10 -11 10 -2 0
-4 -4 -4 -10z"/>
<path d="M2020 2032 c0 -12 19 -26 26 -19 2 2 -2 10 -11 17 -9 8 -15 8 -15 2z"/>
<path d="M3675 2010 c-3 -5 -1 -10 4 -10 6 0 11 5 11 10 0 6 -2 10 -4 10 -3 0
-8 -4 -11 -10z"/>
<path d="M4461 2004 c0 -11 3 -14 6 -6 3 7 2 16 -1 19 -3 4 -6 -2 -5 -13z"/>
<path d="M1455 1991 c-3 -5 -1 -12 5 -16 5 -3 10 1 10 9 0 18 -6 21 -15 7z"/>
<path d="M1700 1991 c0 -5 5 -13 10 -16 6 -3 10 -2 10 4 0 5 -4 13 -10 16 -5
3 -10 2 -10 -4z"/>
<path d="M2060 1991 c0 -5 5 -13 10 -16 6 -3 10 -2 10 4 0 5 -4 13 -10 16 -5
3 -10 2 -10 -4z"/>
<path d="M3400 1981 c-6 -12 -7 -21 -1 -21 10 0 24 30 17 37 -2 3 -9 -5 -16
-16z"/>
<path d="M4461 1964 c0 -11 3 -14 6 -6 3 7 2 16 -1 19 -3 4 -6 -2 -5 -13z"/>
<path d="M1740 1950 c0 -11 4 -20 9 -20 5 0 7 9 4 20 -3 11 -7 20 -9 20 -2 0
-4 -9 -4 -20z"/>
<path d="M1460 1951 c0 -6 5 -13 10 -16 6 -3 10 1 10 9 0 9 -4 16 -10 16 -5 0
-10 -4 -10 -9z"/>
<path d="M2135 1940 c3 -5 8 -10 11 -10 2 0 4 5 4 10 0 6 -5 10 -11 10 -5 0
-7 -4 -4 -10z"/>
<path d="M3369 1933 c-13 -16 -12 -17 4 -4 16 13 21 21 13 21 -2 0 -10 -8 -17
-17z"/>
<path d="M1495 1920 c-4 -6 -2 -17 4 -23 15 -15 25 -2 13 19 -7 12 -11 13 -17
4z"/>
<path d="M1776 1912 c-3 -6 -1 -14 5 -17 14 -9 20 -2 10 14 -6 8 -11 9 -15 3z"/>
<path d="M2170 1910 c0 -5 5 -10 10 -10 6 0 10 5 10 10 0 6 -4 10 -10 10 -5 0
-10 -4 -10 -10z"/>
<path d="M3606 1893 c-6 -14 -5 -15 5 -6 7 7 10 15 7 18 -3 3 -9 -2 -12 -12z"/>
<path d="M1541 1881 c-1 -7 -7 -11 -16 -7 -8 3 -15 1 -15 -4 0 -6 5 -10 10
-10 6 0 15 -11 20 -25 5 -14 14 -25 20 -25 5 0 10 -6 10 -12 0 -15 98 -118
112 -118 5 0 6 -4 3 -10 -3 -5 -2 -10 4 -10 5 0 30 -20 54 -45 25 -25 48 -45
52 -45 4 0 15 -10 24 -21 10 -12 29 -21 43 -21 17 0 28 -7 31 -19 3 -11 12
-19 20 -19 8 0 17 -6 20 -14 3 -8 21 -17 39 -21 18 -4 37 -13 43 -21 14 -17
88 -28 83 -12 -3 7 -19 13 -37 13 -24 0 -37 7 -47 25 -7 14 -13 21 -14 16 0
-5 -9 -1 -20 9 -19 17 -20 17 -20 0 0 -14 -5 -12 -29 11 -66 66 -95 89 -88 72
3 -10 4 -18 2 -18 -12 0 -174 170 -163 170 7 1 -2 7 -20 15 -18 8 -31 19 -28
24 4 5 -3 12 -13 16 -11 3 -23 15 -26 26 -4 10 -13 19 -20 19 -8 0 -17 12 -21
28 -8 39 -12 49 -13 33z"/>
<path d="M1815 1871 c-3 -5 -1 -12 5 -16 5 -3 10 1 10 9 0 18 -6 21 -15 7z"/>
<path d="M375 1850 c-4 -6 3 -10 14 -10 25 0 27 6 6 13 -8 4 -17 2 -20 -3z"/>
<path d="M435 1840 c-19 -9 -19 -9 3 -16 17 -5 22 -12 19 -25 -3 -11 -1 -22 4
-25 5 -3 7 -10 3 -15 -3 -6 3 -13 15 -16 26 -7 27 -20 4 -26 -15 -3 -13 -6 10
-17 15 -7 30 -11 33 -7 7 7 -17 77 -26 77 -4 0 -13 18 -20 40 -14 43 -15 43
-45 30z"/>
<path d="M1855 1831 c-3 -5 -1 -12 5 -16 5 -3 10 1 10 9 0 18 -6 21 -15 7z"/>
<path d="M1892 1788 c2 -6 10 -14 16 -16 7 -2 10 2 6 12 -7 18 -28 22 -22 4z"/>
<path d="M3525 1779 c-4 -6 -5 -12 -2 -15 2 -3 7 2 10 11 7 17 1 20 -8 4z"/>
<path d="M370 1762 c-10 -11 -11 -17 -2 -20 7 -2 12 -9 12 -16 0 -18 24 -66
33 -66 4 0 7 -9 7 -20 0 -10 8 -24 18 -29 9 -6 14 -11 9 -11 -4 0 4 -18 18
-40 14 -22 25 -43 25 -46 0 -4 10 -21 23 -38 13 -17 26 -39 30 -48 3 -10 11
-18 17 -18 5 0 10 -5 10 -10 0 -14 72 -110 82 -110 4 0 8 -7 8 -15 0 -9 7 -18
15 -21 8 -4 15 -10 15 -16 0 -9 296 -308 305 -308 11 0 135 -94 139 -106 3 -8
14 -14 24 -14 11 0 25 -7 32 -15 7 -9 40 -31 74 -51 93 -53 100 -58 109 -71
11 -18 44 -16 78 4 23 14 29 24 29 53 0 36 -16 57 -62 80 -126 65 -283 171
-362 245 -23 22 -65 61 -92 86 -88 83 -227 237 -246 273 -6 12 -26 40 -44 63
-19 23 -34 45 -34 49 0 8 -49 84 -61 94 -3 3 -11 20 -18 38 -9 22 -19 31 -28
28 -8 -4 -17 -6 -19 -6 -2 0 -4 -4 -4 -10 0 -5 7 -10 15 -10 18 0 20 -16 3
-24 -9 -3 -8 -8 5 -16 9 -6 15 -15 12 -21 -4 -5 6 -14 20 -19 14 -5 24 -14 21
-19 -9 -15 -56 12 -56 32 0 11 -10 20 -30 24 -16 3 -30 10 -30 15 0 5 4 7 9 3
5 -3 12 -1 15 4 3 5 -8 11 -24 15 -17 3 -30 11 -30 17 0 7 10 9 25 7 14 -3 25
-2 25 3 0 10 -57 22 -70 14 -5 -3 -10 1 -10 10 0 9 4 14 8 11 4 -2 14 -1 21 3
9 6 5 10 -13 15 -15 4 -30 15 -34 25 -6 17 -8 17 -22 3z m150 -176 c0 -9 -7
-12 -20 -9 -11 3 -20 9 -20 14 0 5 9 9 20 9 11 0 20 -6 20 -14z m40 -36 c0 -5
-11 -10 -25 -10 -14 0 -25 5 -25 10 0 6 11 10 25 10 14 0 25 -4 25 -10z m60
-20 c0 -5 -9 -10 -19 -10 -11 0 -23 5 -26 10 -4 6 5 10 19 10 14 0 26 -4 26
-10z m-52 -16 c31 -9 28 -22 -4 -18 -29 3 -58 24 -33 24 7 0 24 -3 37 -6z m57
-25 c11 -17 -1 -21 -15 -4 -8 9 -8 15 -2 15 6 0 14 -5 17 -11z m-30 -20 c4 -6
5 -12 2 -15 -7 -7 -37 7 -37 17 0 13 27 11 35 -2z m66 -22 c-1 -12 -15 -9 -19
4 -3 6 1 10 8 8 6 -3 11 -8 11 -12z m-26 -27 c-3 -4 -15 -6 -27 -2 -21 5 -21
6 -2 12 21 8 37 3 29 -10z m65 -10 c0 -5 -4 -10 -10 -10 -5 0 -10 5 -10 10 0
6 5 10 10 10 6 0 10 -4 10 -10z m-52 -16 c12 -4 22 -10 22 -13 0 -10 -59 -1
-66 10 -6 10 11 11 44 3z m61 -47 c0 -21 -1 -21 -9 -2 -12 28 -12 37 0 30 6
-3 10 -16 9 -28z m-34 2 c4 -6 5 -12 2 -15 -7 -7 -37 7 -37 17 0 13 27 11 35
-2z m73 -27 c6 -18 -15 -14 -22 4 -4 10 -1 14 6 12 6 -2 14 -10 16 -16z m-30
-27 c-3 -3 -13 -2 -22 1 -14 5 -15 9 -4 15 13 8 36 -6 26 -16z m70 -14 c3 -8
-1 -12 -9 -9 -7 2 -15 10 -17 17 -3 8 1 12 9 9 7 -2 15 -10 17 -17z m-38 -20
c0 -5 -9 -7 -20 -4 -11 3 -20 7 -20 9 0 2 9 4 20 4 11 0 20 -4 20 -9z m71 -14
c-1 -12 -15 -9 -19 4 -3 6 1 10 8 8 6 -3 11 -8 11 -12z m-61 -27 c0 -5 -7 -7
-15 -4 -8 4 -12 10 -9 15 6 11 24 2 24 -11z m30 0 c0 -5 -2 -10 -4 -10 -3 0
-8 5 -11 10 -3 6 -1 10 4 10 6 0 11 -4 11 -10z m70 -16 c0 -8 -4 -12 -10 -9
-5 3 -10 10 -10 16 0 5 5 9 10 9 6 0 10 -7 10 -16z m-65 -15 c12 -19 -5 -23
-22 -6 -16 16 -16 17 -1 17 9 0 20 -5 23 -11z m35 -13 c0 -8 3 -22 7 -32 4
-12 2 -15 -8 -12 -15 5 -21 58 -7 58 4 0 8 -6 8 -14z m70 -12 c0 -8 -4 -12
-10 -9 -5 3 -10 10 -10 16 0 5 5 9 10 9 6 0 10 -7 10 -16z m-30 -28 c0 -8 3
-22 7 -32 4 -11 2 -15 -7 -12 -14 4 -21 58 -8 58 4 0 8 -6 8 -14z m70 -12 c0
-8 -4 -12 -10 -9 -5 3 -10 10 -10 16 0 5 5 9 10 9 6 0 10 -7 10 -16z m-30 -28
c0 -8 3 -22 7 -32 4 -11 2 -15 -7 -12 -14 4 -21 58 -8 58 4 0 8 -6 8 -14z m70
-12 c0 -8 -4 -12 -10 -9 -5 3 -10 10 -10 16 0 5 5 9 10 9 6 0 10 -7 10 -16z
m-25 -72 c-11 -11 -22 11 -17 35 l5 28 8 -29 c5 -17 7 -32 4 -34z m65 32 c0
-8 -4 -12 -10 -9 -5 3 -10 10 -10 16 0 5 5 9 10 9 6 0 10 -7 10 -16z m41 -37
c-1 -12 -15 -9 -19 4 -3 6 1 10 8 8 6 -3 11 -8 11 -12z m-66 -17 c3 -5 1 -10
-4 -10 -6 0 -11 5 -11 10 0 6 2 10 4 10 3 0 8 -4 11 -10z m75 -36 c0 -14 -4
-23 -9 -20 -5 3 -7 15 -4 26 7 28 13 25 13 -6z m36 -4 c1 -14 4 -29 6 -35 1
-5 -1 -11 -7 -11 -5 -1 -9 3 -7 8 2 6 -2 24 -7 40 -8 21 -7 28 1 26 6 -2 12
-15 14 -28z m41 -39 c4 -27 -12 -20 -20 9 -3 13 -1 20 5 18 6 -2 13 -14 15
-27z m73 -27 c0 -8 -4 -12 -10 -9 -5 3 -10 13 -10 21 0 8 5 12 10 9 6 -3 10
-13 10 -21z m-30 -16 c0 -26 -13 -16 -17 13 -2 12 1 18 7 14 5 -3 10 -16 10
-27z m70 -17 c0 -5 3 -17 7 -27 4 -11 3 -15 -4 -11 -14 9 -24 47 -12 47 5 0 9
-4 9 -9z m-30 -22 c0 -11 -4 -18 -10 -14 -5 3 -7 12 -3 20 7 21 13 19 13 -6z
m110 -32 c0 -5 -4 -5 -10 -2 -5 3 -10 14 -10 23 0 15 2 15 10 2 5 -8 10 -19
10 -23z m-30 -9 c0 -26 -13 -16 -17 13 -2 12 1 18 7 14 5 -3 10 -16 10 -27z
m40 -39 c0 -11 -4 -18 -10 -14 -5 3 -7 12 -3 20 7 21 13 19 13 -6z m40 6 c0
-8 -4 -15 -10 -15 -5 0 -10 7 -10 15 0 8 5 15 10 15 6 0 10 -7 10 -15z m30 5
c0 -5 -4 -10 -10 -10 -5 0 -10 5 -10 10 0 6 5 10 10 10 6 0 10 -4 10 -10z"/>
<path d="M400 1771 c0 -5 11 -11 25 -13 20 -4 23 -3 14 8 -13 16 -39 19 -39 5z"/>
<path d="M1932 1748 c3 -7 13 -15 24 -17 16 -3 17 -1 5 13 -16 19 -34 21 -29
4z"/>
<path d="M1411 1721 c-7 -5 -13 -21 -13 -36 0 -23 -7 -30 -38 -42 -34 -14 -73
-63 -50 -63 5 0 12 9 15 20 5 15 12 19 27 15 27 -9 99 65 91 95 -6 22 -11 24
-32 11z"/>
<path d="M1460 1711 c0 -6 9 -11 20 -11 12 0 20 -7 20 -18 0 -22 56 -72 81
-72 18 0 18 1 2 20 -10 11 -23 20 -30 20 -6 0 -14 9 -18 19 -7 23 -22 36 -52
45 -14 5 -23 3 -23 -3z"/>
<path d="M4697 1633 c-4 -3 -7 -13 -7 -22 1 -13 3 -13 11 2 11 19 8 33 -4 20z"/>
<path d="M3343 1599 c-35 -32 -45 -51 -16 -28 32 26 64 59 56 59 -4 0 -23 -14
-40 -31z"/>
<path d="M4672 1568 c-7 -7 -12 -19 -12 -27 0 -11 5 -8 16 7 18 25 15 39 -4
20z"/>
<path d="M1548 1528 c-17 -15 -68 -82 -68 -91 0 -3 8 -5 18 -4 10 0 19 6 19
12 0 15 44 75 55 75 4 0 8 5 8 10 0 14 -13 13 -32 -2z"/>
<path d="M1366 1522 c-3 -5 10 -24 28 -43 18 -19 35 -42 39 -51 3 -10 16 -18
27 -18 26 0 25 7 -2 35 -13 12 -32 33 -43 47 -25 30 -42 41 -49 30z"/>
<path d="M3206 1504 c-22 -21 -20 -27 4 -12 11 7 20 16 20 20 0 12 -7 10 -24
-8z"/>
<path d="M4632 1488 c-7 -7 -12 -19 -12 -27 0 -11 5 -9 20 7 11 12 20 24 20
27 0 9 -16 5 -28 -7z"/>
<path d="M1550 1470 c0 -5 5 -10 10 -10 6 0 10 5 10 10 0 6 -4 10 -10 10 -5 0
-10 -4 -10 -10z"/>
<path d="M3135 1470 c-3 -5 -1 -10 4 -10 6 0 11 5 11 10 0 6 -2 10 -4 10 -3 0
-8 -4 -11 -10z"/>
<path d="M1390 1431 c0 -6 5 -13 10 -16 6 -3 10 1 10 9 0 9 -4 16 -10 16 -5 0
-10 -4 -10 -9z"/>
<path d="M3055 1430 c-3 -5 1 -10 10 -10 9 0 13 5 10 10 -3 6 -8 10 -10 10 -2
0 -7 -4 -10 -10z"/>
<path d="M4586 1398 c-25 -35 -19 -46 9 -16 27 29 30 38 16 38 -6 0 -17 -10
-25 -22z"/>
<path d="M1733 1393 c21 -5 23 -23 2 -23 -8 0 -15 -5 -15 -11 0 -6 -6 -9 -13
-6 -8 3 -20 1 -28 -4 -11 -7 -11 -9 4 -9 9 0 17 -4 17 -10 0 -5 -7 -10 -16
-10 -14 0 -14 -2 0 -15 17 -18 26 -19 26 -4 0 15 62 79 77 79 7 0 13 5 13 10
0 6 -19 9 -42 9 -24 -1 -35 -3 -25 -6z"/>
<path d="M2125 1390 c3 -5 18 -10 32 -10 32 0 22 13 -13 18 -16 2 -23 -1 -19
-8z"/>
<path d="M2960 1390 c-12 -8 -11 -10 8 -10 12 0 22 5 22 10 0 13 -11 13 -30 0z"/>
<path d="M3487 1373 c-24 -55 -71 -104 -92 -97 -8 4 -15 1 -15 -5 0 -6 5 -11
11 -11 5 0 7 -4 4 -10 -3 -5 -1 -10 5 -10 22 0 100 84 100 108 0 12 5 22 10
22 6 0 10 7 10 15 0 25 -20 17 -33 -12z"/>
<path d="M1810 1380 c0 -5 5 -10 11 -10 5 0 7 5 4 10 -3 6 -8 10 -11 10 -2 0
-4 -4 -4 -10z"/>
<path d="M1851 1363 c-1 -7 -9 -10 -18 -7 -15 5 -15 3 1 -10 11 -9 27 -16 35
-16 10 0 12 3 5 8 -6 4 -14 14 -17 22 -3 9 -6 10 -6 3z"/>
<path d="M2810 1350 c0 -5 7 -10 16 -10 8 0 12 5 9 10 -3 6 -10 10 -16 10 -5
0 -9 -4 -9 -10z"/>
<path d="M2850 1350 c0 -5 4 -10 9 -10 6 0 13 5 16 10 3 6 -1 10 -9 10 -9 0
-16 -4 -16 -10z"/>
<path d="M4541 1314 c-25 -32 -28 -56 -3 -29 9 11 23 25 30 32 8 7 9 13 3 17
-5 3 -19 -6 -30 -20z"/>
<path d="M1700 1253 c0 -12 9 -27 20 -33 23 -12 27 -32 5 -24 -8 4 -15 1 -15
-5 0 -6 6 -11 14 -11 7 0 28 -3 46 -7 24 -4 31 -3 26 5 -5 8 2 12 18 12 16 0
26 6 26 15 0 7 8 18 17 24 10 5 15 13 11 16 -4 4 -19 -2 -35 -12 -43 -30 -71
-34 -78 -12 -4 10 -11 19 -17 19 -6 0 -17 8 -24 18 -12 16 -13 15 -14 -5z"/>
<path d="M4503 1254 c3 -4 -9 -25 -28 -47 -48 -56 -43 -72 5 -18 40 43 51 71
28 71 -6 0 -8 -3 -5 -6z"/>
<path d="M3350 1236 c-6 -8 -10 -25 -7 -38 4 -21 4 -20 6 4 0 15 9 32 19 37 9
6 12 11 6 11 -6 0 -17 -7 -24 -14z"/>
<path d="M3654 1146 c-28 -15 -47 -36 -66 -76 -33 -66 -33 -69 -8 -67 11 1 20
5 20 9 0 4 6 8 14 8 8 0 17 9 21 19 3 11 14 22 23 24 15 3 15 5 -2 12 -14 6
-23 2 -37 -16 -25 -32 -24 -18 2 25 18 31 25 35 47 30 21 -4 23 -3 12 5 -19
13 -5 28 30 33 24 3 24 4 4 9 -14 4 -37 -2 -60 -15z"/>
<path d="M4420 1129 c0 -5 5 -7 10 -4 6 3 10 8 10 11 0 2 -4 4 -10 4 -5 0 -10
-5 -10 -11z"/>
<path d="M3420 1116 c0 -9 7 -16 16 -16 17 0 14 22 -4 28 -7 2 -12 -3 -12 -12z"/>
<path d="M3460 1081 c0 -11 5 -23 10 -26 6 -4 8 -10 5 -15 -6 -9 33 -35 41
-27 2 2 -5 14 -16 27 -11 13 -20 29 -20 36 0 7 -4 16 -10 19 -5 3 -10 -3 -10
-14z"/>
<path d="M4324 1013 c-97 -108 -173 -182 -286 -280 -48 -42 -90 -83 -93 -91
-13 -34 9 -22 72 39 197 191 403 402 403 414 0 17 -26 -5 -96 -82z"/>
<path d="M3135 1060 c-3 -4 -17 -11 -32 -15 -16 -3 -36 -14 -47 -23 -10 -9
-21 -16 -25 -15 -10 4 -86 -18 -91 -27 -3 -4 -34 -12 -70 -17 -39 -5 -64 -13
-63 -20 3 -16 -89 -20 -372 -18 -197 1 -251 5 -300 19 -33 10 -80 22 -104 27
-25 5 -49 15 -53 22 -11 17 -29 -12 -22 -35 3 -10 0 -26 -5 -37 -7 -13 -8 -22
-1 -26 5 -3 10 -17 10 -31 0 -15 6 -24 15 -24 8 0 15 -5 15 -10 0 -6 6 -10 13
-9 6 1 37 -1 68 -5 31 -5 81 -8 110 -8 30 -1 60 -6 68 -12 19 -15 352 -21 379
-7 11 6 67 16 124 22 57 6 112 14 123 19 43 18 89 30 116 30 15 0 30 4 34 9 3
5 18 12 33 16 52 11 147 54 170 76 13 12 21 28 17 36 -3 8 -5 21 -5 29 0 23
-93 54 -105 34z m12 -36 c-3 -3 -12 -4 -19 -1 -8 3 -5 6 6 6 11 1 17 -2 13 -5z
m-1160 -86 c-3 -8 -6 -5 -6 6 -1 11 2 17 5 13 3 -3 4 -12 1 -19z m1000 -10
c-3 -8 -6 -5 -6 6 -1 11 2 17 5 13 3 -3 4 -12 1 -19z m-37 -20 c0 -18 -2 -20
-9 -8 -6 8 -7 18 -5 22 9 14 14 9 14 -14z m-699 -10 c0 -10 2 -10 6 0 2 6 11
12 18 12 7 0 15 -6 18 -12 3 -10 7 -10 18 -2 8 7 40 11 74 9 140 -7 241 -8
250 -3 6 3 28 3 50 0 32 -4 36 -6 20 -13 -12 -5 0 -6 33 -4 30 3 52 1 52 -5 0
-15 -107 -12 -114 3 -5 10 -7 10 -12 0 -3 -7 -12 -13 -20 -13 -8 0 -15 -8 -15
-17 -1 -17 -2 -17 -6 0 -4 15 -19 17 -130 17 -70 0 -124 -2 -122 -5 3 -2 53
-6 113 -9 59 -2 110 -7 113 -10 4 -3 -36 -6 -88 -7 -52 0 -112 -1 -134 -1
-125 -2 -196 3 -190 13 4 6 13 8 20 5 7 -2 26 -1 42 4 22 6 11 9 -47 9 -52 1
-70 4 -60 11 8 5 30 10 48 10 20 0 31 4 27 10 -3 6 3 10 14 10 12 0 21 -6 22
-12z m576 -10 c-3 -8 -6 -5 -6 6 -1 11 2 17 5 13 3 -3 4 -12 1 -19z m-32 -38
c3 -5 1 -10 -4 -10 -6 0 -11 5 -11 10 0 6 2 10 4 10 3 0 8 -4 11 -10z m-253
-37 c-40 -2 -103 -2 -140 0 -37 2 -4 3 73 3 77 0 107 -2 67 -3z"/>
<path d="M2573 883 c9 -2 23 -2 30 0 6 3 -1 5 -18 5 -16 0 -22 -2 -12 -5z"/>
<path d="M2336 871 c-4 -5 -2 -12 3 -15 5 -4 12 -2 15 3 4 5 2 12 -3 15 -5 4
-12 2 -15 -3z"/>
<path d="M3535 990 c-3 -5 -1 -10 4 -10 6 0 11 5 11 10 0 6 -2 10 -4 10 -3 0
-8 -4 -11 -10z"/>
<path d="M3755 988 c-11 -6 -50 -33 -86 -59 -37 -27 -70 -49 -74 -49 -5 0 -16
-6 -24 -14 -22 -19 -78 -50 -196 -108 -55 -27 -108 -53 -117 -58 -10 -6 -23
-10 -29 -10 -6 0 -25 -7 -42 -15 -38 -18 -153 -53 -222 -67 -27 -6 -67 -17
-87 -24 -21 -7 -80 -17 -133 -20 -52 -4 -95 -11 -95 -15 0 -5 -6 -6 -12 -4 -7
2 -23 -4 -36 -15 -28 -23 -23 -51 14 -89 21 -21 33 -24 86 -22 34 1 67 5 72
10 6 4 45 13 86 20 41 7 98 19 125 26 28 8 64 17 80 20 17 4 39 10 50 15 11 5
38 14 60 20 22 6 49 15 60 20 42 19 111 47 145 60 19 8 64 29 100 48 36 19 79
41 95 50 17 8 37 21 45 28 8 7 34 23 57 36 54 30 151 96 174 119 10 10 16 26
14 36 -2 10 -4 23 -4 29 -1 11 -60 44 -78 44 -4 0 -17 -6 -28 -12z m-274 -221
c-10 -9 -11 -8 -5 6 3 10 9 15 12 12 3 -3 0 -11 -7 -18z m-67 -32 c-4 -8 -10
-15 -15 -15 -4 0 -6 7 -3 15 4 8 10 15 15 15 4 0 6 -7 3 -15z m-74 -29 c0 -3
-4 -8 -10 -11 -5 -3 -10 -1 -10 4 0 6 5 11 10 11 6 0 10 -2 10 -4z m-470 -186
c0 -5 -5 -10 -11 -10 -5 0 -7 5 -4 10 3 6 8 10 11 10 2 0 4 -4 4 -10z m-195
-55 c9 -40 -3 -27 -15 15 -5 19 -6 29 -1 24 5 -5 12 -22 16 -39z"/>
<path d="M4165 799 c-4 -6 -5 -12 -2 -15 2 -3 7 2 10 11 7 17 1 20 -8 4z"/>
<path d="M760 785 c0 -8 4 -15 10 -15 5 0 7 7 4 15 -4 8 -8 15 -10 15 -2 0 -4
-7 -4 -15z"/>
<path d="M1984 757 c-15 -41 96 -187 132 -173 8 3 14 1 14 -4 0 -6 20 -10 45
-10 33 0 45 4 45 15 0 13 -22 19 -67 18 -7 0 -15 8 -19 19 -5 15 -8 17 -20 7
-9 -7 -14 -8 -13 -3 4 23 -3 34 -22 34 -15 0 -19 4 -15 16 4 11 -1 18 -15 21
-11 3 -18 11 -15 18 2 7 -5 15 -16 18 -11 3 -17 10 -14 16 4 5 2 12 -4 16 -6
3 -13 0 -16 -8z"/>
<path d="M4120 755 c-7 -9 -8 -15 -2 -15 5 0 12 7 16 15 3 8 4 15 2 15 -2 0
-9 -7 -16 -15z"/>
<path d="M800 741 c0 -12 5 -21 10 -21 6 0 10 6 10 14 0 8 -4 18 -10 21 -5 3
-10 -3 -10 -14z"/>
<path d="M4080 715 c-7 -9 -8 -15 -2 -15 5 0 12 7 16 15 3 8 4 15 2 15 -2 0
-9 -7 -16 -15z"/>
<path d="M840 703 c0 -13 5 -23 10 -23 13 0 13 11 0 30 -8 12 -10 11 -10 -7z"/>
<path d="M880 663 c0 -13 5 -23 10 -23 13 0 13 11 0 30 -8 12 -10 11 -10 -7z"/>
<path d="M1448 593 c7 -3 16 -2 19 1 4 3 -2 6 -13 5 -11 0 -14 -3 -6 -6z"/>
<path d="M1495 570 c3 -5 25 -10 47 -10 51 0 47 5 -10 14 -29 4 -41 3 -37 -4z"/>
<path d="M1383 555 c-9 -24 1 -27 20 -5 14 17 15 20 2 20 -9 0 -18 -7 -22 -15z"/>
<path d="M4110 550 c0 -5 7 -10 15 -10 8 0 15 5 15 10 0 6 -7 10 -15 10 -8 0
-15 -4 -15 -10z"/>
<path d="M1490 474 c14 -3 44 -7 68 -10 23 -3 40 -9 37 -15 -4 -5 2 -9 12 -10
12 -1 10 -3 -7 -8 -23 -7 -21 -8 17 -15 23 -4 55 -7 70 -6 41 3 91 -10 97 -26
3 -8 12 -14 20 -14 14 0 30 -34 27 -57 -1 -7 3 -13 9 -13 25 0 -1 91 -36 121
-42 36 -139 59 -242 58 -53 -1 -86 -3 -72 -5z"/>
<path d="M2185 471 c-3 -6 -27 -13 -53 -17 -85 -12 -158 -118 -150 -216 3 -35
18 -37 18 -3 0 21 5 25 28 25 21 0 24 2 12 10 -13 9 -13 12 1 23 8 6 18 20 22
30 4 10 11 15 17 12 18 -11 32 6 15 19 -15 11 -15 13 -1 25 13 11 17 11 22 -2
5 -13 10 -14 31 -4 22 10 23 12 6 18 -16 7 -15 8 5 8 12 1 22 5 22 10 0 5 6 9
13 8 41 -1 67 4 62 13 -3 6 1 10 10 10 9 0 14 4 10 9 -5 9 27 16 115 24 19 2
-18 5 -82 5 -64 1 -119 -2 -123 -7z"/>
<path d="M3880 430 c0 -5 5 -10 11 -10 5 0 7 5 4 10 -3 6 -8 10 -11 10 -2 0
-4 -4 -4 -10z"/>
<path d="M2278 423 c7 -3 16 -2 19 1 4 3 -2 6 -13 5 -11 0 -14 -3 -6 -6z"/>
<path d="M2333 423 c9 -2 25 -2 35 0 9 3 1 5 -18 5 -19 0 -27 -2 -17 -5z"/>
<path d="M1681 391 c-10 -6 -5 -11 18 -16 35 -7 47 -3 36 14 -8 13 -35 14 -54
2z"/>
<path d="M1925 50 c-3 -5 -1 -10 4 -10 6 0 11 5 11 10 0 6 -2 10 -4 10 -3 0
-8 -4 -11 -10z"/>
<path d="M1870 30 c0 -5 10 -10 23 -10 18 0 19 2 7 10 -19 13 -30 13 -30 0z"/>
</g>
</svg>
